<?xml version="1.0" encoding="UTF-8" standalone="no"?><!DOCTYPE svg PUBLIC "-//W3C//DTD SVG 1.1//EN" "http://www.w3.org/Graphics/SVG/1.1/DTD/svg11.dtd"><svg width="100%" height="100%" viewBox="0 0 450 283" version="1.1" xmlns="http://www.w3.org/2000/svg" xmlns:xlink="http://www.w3.org/1999/xlink" xml:space="preserve" xmlns:serif="http://www.serif.com/" style="fill-rule:evenodd;clip-rule:evenodd;stroke-linecap:round;stroke-linejoin:round;stroke-miterlimit:1.5;"><path d="M217.7,24.65c0,0 230.353,-14.671 226.19,122.687c-3.123,103.057 -156.562,97.707 -211.914,101.719c-40.8,2.957 -167.754,2.292 -223.96,6.246c-16.656,1.172 72.274,-19.63 72.274,-19.63c0,0 -87.889,-27.66 -70.043,-96.811c17.845,-69.151 99.934,-112.426 207.453,-114.211Z" style="fill:none;stroke:#4a3b33;stroke-width:6px;"/><path d="M347.718,249.784c0,0 71.175,-14.877 94.196,-52.76" style="fill:none;stroke:#4a3b33;stroke-width:4px;"/><path d="M375.671,247.75c0,0 22.998,-6.959 37.219,-15.577" style="fill:none;stroke:#4a3b33;stroke-width:2px;"/><path d="M24.945,125.948c0,0 11.15,-31.097 33.223,-40.184" style="fill:none;stroke:#4a3b33;stroke-width:4px;"/></svg>