<?xml version="1.0" encoding="UTF-8" standalone="no"?><!DOCTYPE svg PUBLIC "-//W3C//DTD SVG 1.1//EN" "http://www.w3.org/Graphics/SVG/1.1/DTD/svg11.dtd"><svg width="100%" height="100%" viewBox="0 0 480 480" version="1.1" xmlns="http://www.w3.org/2000/svg" xmlns:xlink="http://www.w3.org/1999/xlink" xml:space="preserve" xmlns:serif="http://www.serif.com/" style="fill-rule:evenodd;clip-rule:evenodd;stroke-linecap:round;stroke-linejoin:round;stroke-miterlimit:1.5;"><path d="M224.319,151.555c10.069,-0.992 20.503,2.253 26.083,11.171c5.218,-0.729 22.169,-2.183 23.728,5.377c1.166,5.655 -12.79,10.218 -17.329,10.964c0.854,3.48 0.754,7.538 4.088,9.612c3.17,1.981 7.06,2.84 10.668,3.711c4.408,1.062 8.84,2.025 13.291,2.887c2.458,0.477 6.007,0.409 8.125,1.712c3.026,1.863 0.149,6.932 -1.32,8.979c-4.9,7.702 -13.481,11.903 -22.225,13.523c4.444,2.272 7.227,4.284 9.34,8.981c1.947,4.326 2.227,11.283 -2.933,13.436c-1.664,0.695 -3.539,0.694 -5.202,-0.003c-3.103,-1.324 -4.128,-4.331 -5.218,-7.195c-0.347,1.559 -0.662,2.772 -1.433,4.185c-2.449,4.49 -7.823,6.35 -12.308,3.662c-1.231,1.577 -2.58,3.16 -3.861,4.705c3.717,3.541 4.889,5.331 7.639,9.626c16.153,-0.196 32.885,-0.04 49.062,-0.007l14.211,-0.001c2.292,-0.004 6.223,-0.129 8.358,0.133c0.585,0.834 2.529,16.104 2.633,18.137c-1.216,0.951 -2.922,2.059 -4.219,2.956c-2.041,0.167 -4.871,0.087 -6.986,0.079c0.194,1.524 0.315,3.253 0.458,4.798c3.797,-0.074 7.595,-0.111 11.393,-0.11c0.534,2.083 1.886,18.209 1.322,19.649c-1.287,0.73 -8.633,0.597 -10.493,0.61c0.023,2.075 0.274,4.642 0.438,6.75c1.999,-0.111 9.542,-0.494 11.05,-0.071c0.604,0.864 1.219,17.694 1.191,19.806c-3.473,0.331 -7.654,0.369 -11.181,0.455c0.023,5.452 0.236,11.653 1.99,16.803c1.102,-0.071 5.535,-0.324 6.402,-0.135c2.631,0.572 12.566,2.956 14.449,3.901c0.215,0.387 0.242,0.442 0.332,0.86l0.068,0.326c1.198,0.346 2.656,-0.224 3.633,0.057c5.642,1.623 11.365,3.241 17.009,4.877c0.403,0.117 0.459,0.889 0.559,1.328c0.63,0.184 1.301,0.058 1.947,0.003c1.544,-0.132 16.443,4.438 19.06,5.225c0.009,2.98 -0.129,5.958 -0.414,8.924c-4.792,0.214 -9.775,0.586 -14.565,0.641c-0.027,4.497 0.323,9.679 0.465,14.219c0.404,12.91 1.213,25.759 1.346,38.683c-2.152,0.353 -7.489,0.871 -9.575,0.517c-1.128,-0.192 -3.934,-1.568 -5.103,-2.119c-0.04,-6.183 -0.47,-13.043 -0.63,-19.286c-0.266,-10.329 -0.486,-21.032 -1.108,-31.338c-9.491,0.432 -20.093,0.543 -29.397,1.284c-0.106,3.12 -0.708,6.794 -0.943,9.97c-0.742,10.026 -2.34,20.455 -2.935,30.426c-1.862,0.237 -7.411,0.299 -8.33,1.733c0.343,1.01 2.135,0.764 3.021,1.313c0.627,0.388 1.145,1.039 1.628,1.592c3.43,0.618 7.517,2.092 9.725,4.941c1.912,2.467 2.787,6.603 2.339,9.676c-0.164,1.122 -0.572,2.208 -1.53,2.885c-7.126,5.033 -37.577,0.087 -46.848,-1.222c3.669,10.885 -0.297,12.487 -10.229,14.306c-8.953,2.319 -25.592,-1.877 -34.096,-5.545c-2.821,-1.139 -13.122,-5.422 -13.632,-8.557c-0.906,-5.572 -0.164,-17.261 0.234,-23.368c0.116,-1.777 1.567,-3.929 3.253,-4.358c0.418,-0.106 0.672,-0.243 1.038,-0.456c0.424,-1.868 -1.421,-2.39 -2.404,-3.537c-1.836,-2.142 -1.445,-5.697 -1.359,-8.347c-8.277,-3.476 -8.199,-9.218 -7.878,-17.073c-2.285,0.017 -4.744,0.226 -7.064,0.293c-8.796,0.284 -17.588,0.645 -26.378,1.083c-4.904,0.244 -12.088,0.251 -16.63,0.695c0.004,3.089 0.252,6.442 0.314,9.581c0.326,16.686 1.282,33.53 1.539,50.21c-1.685,0.549 -7.408,0.883 -9.681,1.156c-1.582,-0.639 -4.426,-2.27 -5.937,-3.127c0.031,-9.443 -0.603,-20.258 -0.858,-29.789c-0.227,-8.524 -0.337,-19.048 -0.999,-27.457c-8.023,0.743 -8.805,0.23 -16.232,-2.607c-2.217,-0.814 -4.437,-1.622 -6.644,-2.461c-0.523,-0.198 -0.668,-0.806 -0.841,-1.283c-0.439,-0.337 -0.764,-0.25 -1.468,-0.249c-2.115,0.003 -5.494,-1.62 -7.646,-2.476c-1.556,17.426 -3.212,34.844 -4.968,52.251c-3.174,0.216 -6.318,0.679 -9.548,0.803c-1.673,-0.852 -3.538,-1.862 -5.111,-2.868c1.206,-9.88 1.87,-20.214 2.853,-30.14c0.834,-8.425 1.872,-17.932 0.786,-26.272c-2.545,-0.948 -5.908,-2.057 -8.28,-3.159c-0.082,-1.383 -0.556,-7.487 0.367,-8.312c1.039,-0.928 3.901,-0.628 5.244,-0.637c-1.371,-6.18 -1.549,-11.446 -1.696,-17.756c-2.008,-0.032 -6.556,0.529 -7.98,-0.106c-0.663,-1.568 -1.495,-18.583 -1.587,-21.194c3.578,-0.963 4.49,-1.14 8.158,-1.133c-0.031,-2.094 -0.337,-5.221 -0.461,-7.413l-0.217,-0.007l-0.363,-0.004c-2.189,-0.035 -5.778,0.766 -7.423,0.431c-0.477,-0.827 -1.777,-18.747 -1.782,-20.697c3.059,-1.343 4.534,-1.833 7.825,-1.779l-0.423,-5.307c-2.711,0.033 -5.421,0.022 -8.131,-0.034c-0.455,-1.665 -0.943,-6.504 -1.137,-8.405c-0.37,-3.619 -1.097,-8.135 -1.186,-11.704c1.468,-0.951 2.923,-1.921 4.365,-2.91c9.897,-0.283 21.545,0.04 31.525,0.075l55.706,0.066c2.595,-4.823 5.071,-8.491 9.25,-12.071c-6.89,-4.481 -12.197,-15.976 -12.74,-23.997c-0.46,-6.799 5.798,-14.438 9.114,-20.037c2.072,-3.492 4.211,-6.944 6.415,-10.354c-10.205,-10.442 0.483,-24.227 10.163,-30.343c1.339,-0.846 2.771,-1.57 4.174,-2.309c0.217,-0.847 0.484,-1.811 0.927,-2.569c0.866,-1.507 2.323,-2.585 4.017,-2.972c2.286,-0.527 3.735,0.094 5.558,1.269c3.195,-0.831 5.959,-1.267 9.218,-1.645m-109.001,184.58c-0.096,5.169 0.288,13.08 2.122,17.818c6.31,-0.341 12.543,-0.409 18.853,-0.672c2.599,-0.109 5.245,-0.047 7.834,-0.253c2.322,-0.07 5.106,-0.219 7.393,-0.173c-5.607,-1.722 -10.453,-3.645 -14.931,-7.638c-1.092,-0.973 -3.092,-2.645 -2.773,-4.211c0.764,-0.682 1.624,-0.546 2.52,-0.148c12.299,5.472 25.696,7.9 37.441,-1.033l0.213,-0.163c-3.049,-1.193 -3.745,-1.505 -3.973,-4.994c-0.963,0.022 -2.381,0.018 -3.298,0.108c-10.682,0.163 -21.826,0.558 -32.54,0.904l-13.357,0.323c-1.79,0.033 -3.737,0.17 -5.503,0.131m4.42,-51.481l34.249,-0.251c4.173,-0.015 10.555,-0.266 14.551,-0.04c0.244,-1.869 0.714,-3.448 1.206,-5.257c-2.465,0.009 -4.93,0.041 -7.394,0.096c-6.378,0.217 -13.391,0.094 -19.816,0.112c-10.48,0.112 -20.961,0.158 -31.442,0.138c0.228,1.735 0.346,3.538 0.486,5.286c2.72,-0.011 5.44,-0.04 8.159,-0.085m153.825,115.349c-1.556,-3.003 -1.28,-6.35 -1.267,-9.704c-2.846,-1.053 -4.75,-1.909 -6.114,-4.932c-0.91,-2.019 -1.412,-5.696 -1.477,-7.941l-3.424,0.052c-0.398,6.807 0.732,14.692 -5.707,18.612c0.092,3.143 0.141,5.433 -0.549,8.565c-0.925,0.584 -1.603,0.853 -2.163,1.743l0.042,0.327c1.674,0.798 6.84,-0.6 8.308,3.71c0.422,1.242 0.345,2.705 0.29,4.038c2.743,-0.026 4.348,-0.045 7.083,0.413l2.663,0.798c0.95,-4.02 -0.188,-9.297 4.487,-10.927l0.254,-0.09l0.153,-0.051c-0.087,-1.14 -0.204,-2.377 -0.235,-3.512c-1.097,-0.35 -1.385,-0.535 -2.343,-1.101m27.702,-52.3c3.038,-0.015 6.38,-0.354 9.264,-0.264c-0.886,-2.727 -1.691,-16.915 -1.784,-17.063c-5.268,0.088 -10.533,0.241 -15.797,0.468c-3.204,0.138 -6.9,0.118 -10.056,0.406c5.055,1.988 8.085,3.313 12.335,6.88c3.457,3.288 4.354,5.104 6.038,9.573m-124.07,1.822c-1.997,1.145 -3.325,1.451 -5.244,2.391l-0.001,0.134l0.783,-0.032c1.815,-0.063 3.817,-0.089 5.615,-0.213c-0.27,-0.616 -0.733,-1.834 -1.153,-2.28m93.918,-66.198l33.996,-0.201l-0.628,-4.925l-4.763,0.083c-2.752,0.076 -5.573,0.109 -8.328,0.081c-8.45,-0.084 -16.938,0.232 -25.381,0.169c0.604,1.627 1.254,3.234 1.951,4.823l3.153,-0.029Zm-113.826,22.666c-14.416,0.234 -29.38,0.261 -43.767,0.746c0.184,1.457 0.493,5.7 0.507,7.222c3.574,-0.034 7.098,-0.218 10.662,-0.269l29.001,-0.524c4.595,-0.077 9.424,-0.284 14.013,-0.229c0.293,-0.977 0.505,-1.767 0.93,-2.702c-0.321,-1.338 -0.79,-3.077 -0.998,-4.404c-3.292,0.022 -7.101,-0.04 -10.349,0.16m148.334,102.998c2.718,-0.568 3.626,-0.658 6.395,-0.592l2.129,-21.138c0.33,-3.244 1.014,-8.728 1.074,-11.876l-1.761,0.083c-2.868,0.083 -7.377,0.416 -10.037,0.341c-0.016,5.298 0.468,9.379 -4.45,12.727c0.047,1.72 0.129,3.466 0.129,5.184c-0.001,3.18 0.416,5.167 -2.953,6.275l-0.023,2.2c3.219,-0.589 4.759,-0.985 7.802,0.57c2.191,1.942 1.768,3.48 1.696,6.226m1.22,-105.624l-3.322,0.056c-8.17,0.169 -17.711,0.501 -25.783,0.409c0.914,2.484 1.635,4.229 2.105,6.835l1.871,-0.011c8.399,-0.077 17.498,-0.599 25.815,-0.488c-0.081,-1.959 -0.332,-4.841 -0.687,-6.801" style="fill:#030201;fill-rule:nonzero;"/><path d="M246.207,168.644c2.055,0.862 3.859,2.185 5.532,3.632c-1.975,-0.319 -4.943,-0.372 -5.921,1.83l0.215,0.198c0.58,-0.037 2.516,-1.198 3.681,-1.481c4.21,1.032 4.863,2.85 6.027,6.633c-6.945,-9.44 -13.266,4.361 -7.651,12.597c5.558,-0.07 4.989,-8.39 2.441,-11.455c-0.842,-1.013 -1.49,-0.536 -2.63,-0.774c-0.194,-2.191 3.61,-2.681 4.93,-1.933c2.213,1.252 2.942,4.438 3.654,6.751c1.019,0.469 0.798,0.427 0.983,1.503c1.844,3.872 6.37,5.379 10.215,6.412c5.372,1.443 10.909,2.601 16.381,3.594c-2.743,1.125 -6.087,2.755 -4.313,6.558c1.317,2.824 5.78,5.349 8.88,5.583c-7.264,7.83 -18.531,10.973 -28.92,11.312c-8.232,0.269 -19.966,-1.079 -25.281,-8.018c0.646,-0.226 1.763,-0.414 2.2,-0.793c-0.227,-0.582 -0.054,-0.322 -0.628,-0.736c-2.188,0.499 -5.062,1.477 -5.44,4.089l0.103,0.24c0.975,0.165 1.93,-1.666 3.001,-2.454c1.826,2.764 3.189,3.391 5.724,5.519c0.673,0.565 1.34,1.243 2.002,1.76c-0.045,1.458 -0.23,7.755 -1.368,8.684c-1.277,-0.328 -3.434,-1.04 -4.626,-0.605c0.282,0.847 4.936,1.783 5.903,2.088c-5.81,5.257 -6.313,10.862 -6.023,18.353c-4.373,1.419 -8.561,0.937 -12.661,-1.154c-0.34,-0.174 -0.677,-0.354 -1.01,-0.539c3.121,-12.471 5.901,-8.803 -7.032,-13.84c-0.819,-0.444 -2.73,-1.167 -3.668,-1.551c1.669,-10.631 -1.449,-20.583 -2.173,-31.132c-0.067,-0.983 -0.096,-1.966 -0.127,-2.935c-0.05,-1.54 0.762,-4.713 0.213,-6.045l-0.268,-0.09c-2.747,2.669 1.215,24.854 1.649,29.525c1.116,11.997 -3.132,26.579 -17.77,25.183c-9.379,-0.895 -18.354,-19.824 -16.375,-27.606c2.145,-8.434 11.858,-20.564 16.481,-28.483c4.659,-7.668 14.425,-5.971 21.863,-7.537c5.537,-1.166 10.496,-4.641 15.896,-6.017c0.781,-0.204 3.178,0.948 3.88,0.472c-0.597,-0.987 -1.602,-1.159 -2.684,-1.512c5.319,-2.534 9.132,-4.168 14.717,-5.826" style="fill:#725a41;fill-rule:nonzero;"/><path d="M222.98,221.842c-0.078,-1.76 0.027,-3.231 0.518,-5.123c1.166,-4.49 6.133,-8.895 10.975,-7.784c0.648,0.149 1.204,0.504 1.528,1.123c-2.188,0.499 -5.062,1.477 -5.44,4.089l0.103,0.24c0.975,0.165 1.93,-1.666 3.001,-2.454c1.826,2.764 3.189,3.391 5.724,5.519c0.673,0.565 1.34,1.243 2.002,1.76c-0.045,1.458 -0.23,7.755 -1.368,8.684c-1.277,-0.328 -3.434,-1.04 -4.626,-0.605c0.282,0.847 4.936,1.783 5.903,2.088c-5.81,5.257 -6.313,10.862 -6.023,18.353c-4.373,1.419 -8.561,0.937 -12.661,-1.154c-0.34,-0.174 -0.677,-0.354 -1.01,-0.539c3.121,-12.471 5.901,-8.803 -7.032,-13.84c1.592,-5.784 3.564,-7.291 8.406,-10.357" style="fill:#9b7144;fill-rule:nonzero;"/><path d="M248.089,192.054c5.558,-0.07 4.989,-8.39 2.441,-11.455c-0.842,-1.013 -1.49,-0.536 -2.63,-0.774c-0.194,-2.191 3.61,-2.681 4.93,-1.933c2.213,1.252 2.942,4.438 3.654,6.751c1.019,0.469 0.798,0.427 0.983,1.503c-0.01,3.568 -0.691,8.145 -5.406,8.507c-1.38,0.106 -3.276,-1.452 -3.972,-2.598m-25.821,3.184c-2.852,-5.054 -1.604,-14.704 4.594,-16.766c4.435,-1.475 7.876,1.395 9.253,5.46c0.217,0.64 0.052,0.943 -0.247,1.468c0.813,0.779 0.986,3.976 1.056,5.146c0.289,4.867 -2.773,9.453 -7.96,9.539c-2.466,0.041 -6.548,-2.186 -6.695,-4.848" style="fill:#fdfdfd;fill-rule:nonzero;"/><path d="M222.268,195.238c-2.852,-5.054 -1.604,-14.704 4.594,-16.766c4.435,-1.475 7.876,1.395 9.253,5.46c0.217,0.64 0.052,0.943 -0.247,1.468l-0.092,-0.162c-1.433,-2.546 -1.934,-5.076 -5.24,-5.914c-3.228,-0.819 -5.538,0.916 -7.205,3.385c3.315,-0.81 4.536,0.622 5.312,3.872c0.956,4.005 -0.534,12.464 -6.374,8.656" style="fill:#030201;fill-rule:nonzero;"/><path d="M223.697,184.73c2.071,0.504 1.662,2.282 0.748,3.614c-2.103,-0.422 -1.624,-2.283 -0.748,-3.614" style="fill:#fdfdfd;fill-rule:nonzero;"/><path d="M214.942,337.702c2.063,1.442 4.55,2.518 6.825,3.579c2.507,1.17 5.432,2.866 8.269,2.393c0.728,-0.053 2.352,-0.62 2.993,-0.567c3.133,0.26 4.724,-0.004 7.077,-2.307c1.59,-1.556 2.319,-1.812 3.047,-4.037c6.925,3.328 12.985,6.283 15.534,14.24c2.499,8.437 1.833,18.042 1.574,26.73c-0.11,3.691 -0.267,11.03 -1.851,14.111c-3.243,6.307 -16.562,5.662 -22.646,5.145c-1.265,-0.107 -3.157,-0.321 -3.868,-1.262c-0.361,0.393 -0.195,0.359 -0.592,0.459l-0.063,-0.024c-7.502,-1.982 -10.444,-5.817 -10.034,-13.811c0.186,-3.616 0.32,-6.599 1.027,-10.232c-0.953,-0.12 -1.335,-0.124 -2.049,-0.737c-0.818,-1.804 1.639,-3.86 0.806,-4.871c-1.031,0.854 -1.715,2.708 -2.202,3.928c-7.975,-0.525 -19.269,-4.262 -26.767,-7.136c-9.238,-3.541 -14.838,-13.031 -15.583,-22.713c2.733,0.624 5.484,0.912 8.199,1.544l0.39,0.484l0.52,-0.359c2.12,-0.3 4.736,0.024 6.922,-0.087c7.34,-0.373 15.739,-1.402 22.472,-4.469" style="fill:#ed403d;fill-rule:nonzero;"/><path d="M176.439,340.588c2.733,0.624 5.484,0.912 8.199,1.544l0.39,0.484l0.52,-0.359c0.687,3.104 2.622,5.783 5.473,7.32c10.049,5.418 21.84,7.92 32.763,11.082c3.899,1.128 0.302,3.797 2.013,5.792c5.059,2.023 1.96,3.219 2.272,7.549c0.528,7.333 0.191,14.947 3.827,21.726c-0.361,0.393 -0.195,0.359 -0.592,0.459l-0.063,-0.024c-7.502,-1.982 -10.444,-5.817 -10.034,-13.811c0.186,-3.616 0.32,-6.599 1.027,-10.232c-0.953,-0.12 -1.335,-0.124 -2.049,-0.737c-0.818,-1.804 1.639,-3.86 0.806,-4.871c-1.031,0.854 -1.715,2.708 -2.202,3.928c-7.975,-0.525 -19.269,-4.262 -26.767,-7.136c-9.238,-3.541 -14.838,-13.031 -15.583,-22.713" style="fill:#ed403d;fill-rule:nonzero;"/><path d="M185.028,342.617l0.52,-0.359c0.687,3.104 2.622,5.783 5.473,7.32c10.049,5.418 21.84,7.92 32.763,11.082c3.899,1.128 0.302,3.797 2.013,5.792c5.059,2.023 1.96,3.219 2.272,7.549c0.528,7.333 0.191,14.947 3.827,21.726c-0.361,0.393 -0.195,0.359 -0.592,0.459l-0.063,-0.024c-0.395,-1.416 -1.679,-3.047 -2.001,-4.658c-1.479,-7.39 -2.557,-15.54 -1.28,-22.995c-3.932,-2.192 -3.713,-1.633 -2.951,-6.458c-2.496,-1.405 -5.863,-1.565 -8.429,-2.485c-7.529,-2.702 -31.119,-7.013 -31.551,-16.948" style="fill:#180404;fill-rule:nonzero;"/><path d="M248.731,321.793l-0.515,-0.048c0.779,-0.179 0.511,0.028 0.926,-0.5c0.151,-0.56 0.032,-0.741 -0.153,-1.293l-0.066,-0.192l0.274,-0.132c2.642,5.075 4.057,5.864 7.025,9.983l-2.628,1.011l-1.758,-1.874c0.804,-0.347 0.99,-0.248 1.288,-0.838c-0.098,-0.255 -0.165,-0.455 -0.29,-0.698l-0.894,0.343c-0.472,0.241 -0.696,0.281 -0.954,0.729c-0.021,1.223 1.429,2.491 2.303,3.451c1.414,-0.322 5.793,-2.128 7.4,-2.739c0.705,2.591 2.219,6.713 4.605,8.151c1.677,1.011 2.74,0.824 4.467,0.408c3.009,1.367 4.587,1.384 7.442,-0.202c4.013,0.642 5.131,-1.19 6.143,-4.693l0.151,0.052c6.271,2.2 12.52,5.788 15.475,11.977c0.764,1.601 1.255,3.315 1.578,5.056c1.111,5.995 2.915,29.209 1.032,34.134c-0.744,1.946 -2.12,3.359 -4.032,4.17c-5.762,2.445 -20.743,3.14 -26.409,0.701c-2.038,-0.877 -3.482,-2.403 -4.26,-4.479c-1.085,-2.894 -2.271,-17.144 -1.482,-19.683c0.845,-2.718 2.906,-5.116 4.043,-7.738l-0.185,-0.224c-1.592,0.311 -4.379,6.527 -4.825,8.07l-2.929,-0.8c-0.416,-9.268 -1.264,-18.164 -9.766,-23.769c-1.297,-0.855 -2.674,-1.562 -4.01,-2.357l-0.04,-0.24c1.303,-0.236 2.583,-1.06 3.05,-2.36c1.687,-4.704 -3.823,-7.933 -6.949,-10.266c-0.823,-0.614 -0.714,-1.693 -1.201,-2.802c-0.428,-0.216 -0.468,-0.19 -0.751,-0.563c0.437,-0.329 2.799,-0.632 3.647,-0.899c0.761,-0.108 0.719,-0.11 1.446,0.149c-0.079,0.791 -0.193,0.694 0.105,1.293c0.537,0.197 1.108,-0.099 1.697,-0.29" style="fill:#ed403d;fill-rule:nonzero;"/><path d="M248.731,321.793l-0.515,-0.048c0.779,-0.179 0.511,0.028 0.926,-0.5c0.151,-0.56 0.032,-0.741 -0.153,-1.293l-0.066,-0.192l0.274,-0.132c2.642,5.075 4.057,5.864 7.025,9.983l-2.628,1.011l-1.758,-1.874c0.804,-0.347 0.99,-0.248 1.288,-0.838c-0.098,-0.255 -0.165,-0.455 -0.29,-0.698c-2.194,-3.308 -2.157,0.143 -3.946,-1.979l1.52,-0.98c-0.451,-1.199 -0.561,-1.833 -1.677,-2.461" style="fill:#febc54;fill-rule:nonzero;"/><path d="M245.484,320.642c0.761,-0.108 0.719,-0.11 1.446,0.149c-0.079,0.791 -0.193,0.694 0.105,1.293c0.537,0.197 1.108,-0.099 1.697,-0.29c1.116,0.628 1.226,1.262 1.677,2.461l-1.52,0.98l-0.194,-0.343l-0.625,-0.123c0.492,-0.157 0.506,-0.136 0.915,-0.437c1.105,-2.437 -1.276,-1.345 -2.322,-1.331c-0.7,-0.413 -0.967,-1.605 -1.18,-2.358" style="fill:#2b0e09;fill-rule:nonzero;"/><path d="M251.941,327.556c-0.338,-0.422 -0.317,-0.425 -0.765,-0.716c-1.422,0.166 -3.639,0.01 -3.106,-2.072l0.625,0.123l0.194,0.343c1.789,2.122 1.752,-1.328 3.946,1.979l-0.894,0.343Z" style="fill:#2b0e09;fill-rule:nonzero;"/><path d="M271.985,361.254c0.401,-0.04 0.252,-0.043 0.651,0.071l-0.022,0.262c-0.845,1.025 -2.301,1.679 -3.491,2.216c-0.329,-0.021 -0.257,-0.026 -0.576,-0.143c0.37,-0.914 2.463,-1.871 3.438,-2.406" style="fill:#180404;fill-rule:nonzero;"/><path d="M179.115,280.288c6.813,-1.068 15.732,1.989 21.334,5.873c-0.096,2.383 -0.394,4.605 -0.441,7.061c-1.932,-1.279 -8.591,-4.398 -10.703,-3.105c0.306,0.622 3.513,1.042 4.292,1.245c2.809,0.734 5.499,1.897 7.429,4.157c-3.368,-1.003 -5.942,-1.223 -9.461,-0.624c-1.159,0.197 -4.128,1.085 -4.768,2.005l0.122,0.285c0.535,0.103 3.299,-0.837 4.041,-1.104c2.536,-0.91 9.482,-0.882 11.36,1.252c5.049,5.738 12.255,7.953 13.826,15.975c0.036,0.681 0.157,1.213 -0.175,1.781c-0.581,0.001 -2.833,-0.025 -3.225,0.131c-6.833,2.715 -12.506,9.687 -10.902,17.284c-10.974,2.385 -24.047,-10.462 -29.904,-18.773c-6.135,-8.704 -4.197,-21.324 -2.035,-31.161c3.613,-1.39 5.381,-1.893 9.211,-2.283" style="fill:#febc54;fill-rule:nonzero;"/><path d="M92.859,257.566l84.711,0.261c-2.262,4.739 -3.656,8.322 -5.449,13.255c-0.477,1.383 -0.918,2.885 -1.359,4.288c-10.581,0.332 -22.768,0.139 -33.46,0.207l-27.839,0.102c-5.147,0.019 -10.429,0.137 -15.557,0.054l-1.801,-16.355c-0.064,-0.619 -0.237,-1.362 0.081,-1.758l0.674,-0.055Zm50.898,28.062c8.148,-0.115 16.293,-0.02 24.427,-0.182c-1.32,6.227 -1.933,12.907 -0.991,19.229c-15.786,0.176 -31.57,0.452 -47.352,0.827c-7.665,-0.001 -15.458,0.325 -23.169,0.367c-0.349,-6.683 -0.982,-13.27 -1.352,-19.921c4.68,-0.193 10.243,-0.076 15.012,-0.107l33.426,-0.212Zm15.223,28.606c2.721,-0.092 5.443,-0.129 8.166,-0.11c-1.25,5.542 -1.814,10.01 3.267,13.975c-0.237,1.9 -0.426,3.447 -0.505,5.371c-20.28,0.696 -40.564,1.286 -60.851,1.77l-10.361,0.319c-0.433,-6.496 -1.04,-13.699 -1.211,-20.152c7.012,-0.399 15.293,-0.319 22.39,-0.433l39.105,-0.739Z" style="fill:#bc8450;fill-rule:nonzero;"/><path d="M240.256,250.461c0.228,0.778 0.506,2.692 0.678,3.596c-1.193,0.782 -1.825,1.038 -3.135,1.519c0.089,0.717 0.125,2.105 0.593,2.556c0.622,0.055 1.226,0.015 1.684,0.386l-0.051,0.428c-0.521,0.566 -0.875,0.502 -1.725,0.718c0.117,0.888 0.202,1.808 0.296,2.7c0.92,0.001 1.412,-0.155 2.046,0.57l-0.043,0.373c-0.527,0.564 -0.975,0.538 -1.786,0.689c0.061,0.88 0.206,1.771 0.33,2.647c1.036,-0.017 1.486,-0.213 2.105,0.657l-0.142,0.446c-0.548,0.579 -1.055,0.573 -1.874,0.73c0.09,0.919 0.173,1.839 0.248,2.761c0.724,-0.001 1.947,-0.176 2.255,0.541c-0.363,0.775 -1.402,1.187 -2.129,2.207c0.067,1.977 2.119,2.078 2.433,2.919c-0.657,0.475 -1.222,0.493 -2.027,0.636c0.081,0.896 0.115,1.891 0.167,2.798l0.229,0.023c1,0.106 1.228,0.018 1.794,0.72l-0.066,0.376c-0.506,0.571 -0.959,0.565 -1.754,0.744c0.017,0.897 0.043,1.793 0.076,2.688c1.005,0.085 1.56,-0.048 2.106,0.829l-0.14,0.4c-0.527,0.48 -1.048,0.479 -1.766,0.606c0.003,0.918 -0.006,1.448 0.125,2.368c0.598,0.536 0.604,0.146 1.664,0.493c0.337,0.506 0.226,0.226 0.263,0.896c-0.362,0.527 -1.116,0.515 -1.918,0.695l0.129,2.571c1.032,0.095 1.551,-0.039 2.086,0.874l-0.161,0.376c-0.576,0.473 -1.03,0.416 -1.819,0.495l0.07,2.671c0.89,0.034 1.5,0.037 2.227,0.573c-0.284,0.882 -1.785,0.797 -2.157,2.572c0.359,1.576 1.347,1.14 2.451,2.241l-0.089,0.311c-0.655,0.504 -1.078,0.499 -1.92,0.66l0.324,2.784c0.803,-0.044 1.389,-0.214 2.009,0.117c0.142,0.762 0.22,0.441 -0.088,1.022c-0.558,0.232 -0.749,0.319 -1.27,0.62c-1.272,1.975 1.031,2.56 2.311,3.125l0.08,0.325c-0.485,0.598 -1.107,0.815 -1.812,1.164c0.541,2.273 0.3,2.16 2.575,2.389l0.247,0.385c-0.156,0.985 -0.977,0.483 -1.38,1.744c0.127,0.677 0.425,0.906 0.883,1.425c-2.915,0.908 -6.995,1.249 -10.098,1.636c-3.604,0.45 -7.514,0.998 -11.118,1.221c-0.37,-0.75 -0.551,-1.055 -1.029,-1.742c-0.616,-0.694 -0.883,-0.771 -0.991,-1.551c1.821,-2.637 -0.373,-2.269 -1.053,-3.064c0.15,-0.692 -0.031,-0.451 0.451,-0.82c1.175,-0.04 1.805,0.071 2.089,-1.257c0.535,-2.502 -1.033,-1.421 -1.662,-2.332c0.096,-0.695 -0.045,-0.413 0.36,-0.909c1.945,-0.506 2.114,-0.79 1.983,-2.833c-0.687,-0.738 -0.863,0.003 -1.818,-0.713c-0.067,-0.677 -0.134,-0.376 0.154,-0.947c2.363,-0.231 2.049,-0.915 2.061,-3.005c-0.987,-0.212 -1.413,-0.128 -1.91,-1.032l0.184,-0.435c0.593,-0.477 1.21,-0.388 2.012,-0.419c0.205,-2.762 0.285,-1.983 -1.66,-3.318c-0.138,-0.559 -0.154,-0.297 0.003,-0.814c2.324,-0.64 2.092,-0.79 2.067,-3.151c-0.82,-0.152 -1.295,-0.135 -1.859,-0.725l0.028,-0.333c0.525,-0.516 1.232,-0.523 1.983,-0.641l0.049,-2.6c-0.831,-0.153 -1.452,-0.153 -1.932,-0.818l0.117,-0.369c0.615,-0.473 1.073,-0.411 1.892,-0.48c0.153,-4.08 -0.851,-1.76 -1.994,-3.309c0.511,-1.006 2.119,-0.891 2.404,-2.428c-0.099,-0.511 -0.259,-0.594 -0.619,-0.982c-0.768,-0.194 -1.046,-0.211 -1.686,-0.641l-0.026,-0.312c0.4,-0.427 1.291,-0.542 1.902,-0.689c0.013,-0.854 -0.046,-1.863 -0.073,-2.73c-0.164,-0.015 -0.328,-0.032 -0.491,-0.05c-0.683,-0.076 -1.001,-0.041 -1.422,-0.564l0.078,-0.322c0.545,-0.476 1.084,-0.475 1.814,-0.599c0.026,-0.769 0.122,-1.428 -0.14,-2.137c-0.623,-0.715 -1.283,-0.465 -1.517,-0.744c-1.323,-1.574 0.655,-0.959 1.212,-1.967c0.355,-0.644 0.14,-1.764 0.064,-2.517c-0.992,0.038 -1.487,0.215 -2.076,-0.629l0.124,-0.39c0.56,-0.55 0.998,-0.525 1.817,-0.671c-0.168,-4.423 -0.953,-1.682 -2.519,-3.419l0.081,-0.332c0.678,-0.528 1.124,-0.528 1.986,-0.685c-0.004,-2.507 0.086,-2.539 -2.185,-3.029c-0.132,-0.6 -0.182,-0.336 0.082,-0.829c0.909,-0.293 1.395,-0.344 1.397,-1.45c0.005,-2.522 -2.013,-1.979 -3.243,-3.087c-0.235,-0.67 -0.238,-0.356 -0.116,-0.968c0.377,-0.014 0.274,-0.062 0.541,0.067c4.142,2.008 9.182,2.873 13.665,1.552c2.458,-0.725 3.809,-1.997 5.403,-3.846" style="fill:#fdfdfd;fill-rule:nonzero;"/><path d="M239.564,313.461c0.805,-0.079 1.359,-0.23 1.964,0.358c-0.375,0.257 -1.897,0.458 -2.474,0.545c-4.515,0.681 -8.422,2.716 -12.369,4.903c-0.776,0.461 -1.645,0.823 -2.472,1.196c3.245,-3.275 10.797,-6.297 15.351,-7.002m-2.341,-8.705c0.15,0.145 0.051,0.035 0.222,0.387c-1.518,2.081 -10.39,9.355 -12.714,10.614l-0.144,-0.232c-0.052,0.084 11.774,-10.12 12.636,-10.769" style="fill:#030201;fill-rule:nonzero;"/><path d="M256.268,258.075c8.096,-0.24 17.036,-0.051 25.204,-0.047l44.985,0.067c0.473,4.514 1.977,11.882 2.113,16.078l-0.361,0.177l-63.703,0.538c-0.948,-1.814 -1.881,-4.183 -2.791,-6.1c-1.752,-3.603 -3.568,-7.175 -5.447,-10.714m64.109,26.075c3.03,-0.086 6.19,-0.064 9.23,-0.085c0.396,5.742 0.957,12.012 1.46,17.759l-51.371,0.872l-2.496,0.005c-1.598,-2.947 -3.444,-5.778 -5.03,-8.684c-1.405,-2.575 -2.883,-6.583 -3.772,-9.398l32.352,-0.319c6.543,0.003 13.085,-0.047 19.628,-0.149" style="fill:#bc8450;fill-rule:nonzero;"/><path d="M224.329,152.659c1.846,-0.318 6.456,-0.146 8.304,0.147c7.503,1.188 12.257,4.146 16.735,10.109c-14.445,2.765 -29.372,8.772 -40.53,18.508c-1.409,-0.074 -2.934,-0.038 -4.354,-0.031c-6.744,0.764 -9.495,2.778 -13.641,7.876c-8.151,-8.348 -0.653,-20.213 6.767,-26.007c7.688,-6.004 17.059,-9.557 26.719,-10.602" style="fill:#febc54;fill-rule:nonzero;"/><path d="M203.493,160.372c0.204,0.033 0.402,0.113 0.603,0.179c0.02,0.521 -0.167,0.517 -0.484,0.944c-4.683,6.316 -4.591,12.216 -2.961,19.615l-0.376,-0.02c-0.674,-0.759 -1.16,-3.791 -1.259,-4.844c-0.549,-5.831 0.759,-11.308 4.477,-15.875" style="fill:#030201;fill-rule:nonzero;"/><path d="M217.647,155.019c5.1,-0.829 12.349,7.231 12.416,11.935c-0.705,-0.29 -0.989,-1.468 -1.345,-2.298c-1.527,-3.56 -3.791,-6.42 -7.436,-7.936c-1.197,-0.498 -2.981,-0.786 -3.635,-1.7" style="fill:#2b0e09;fill-rule:nonzero;"/><path d="M324.604,310.938c2.443,-0.09 4.949,-0.118 7.398,-0.173c0.092,5.554 0.644,12.166 0.883,17.869l-47.102,1.274l-2.516,0.074c-0.647,-3.471 -1.866,-4.814 -4.566,-6.86c0.005,-2.049 -0.062,-2.846 -0.659,-4.797c1.61,-2.7 1.684,-3.28 1.817,-6.442l44.746,-0.944Z" style="fill:#bc8450;fill-rule:nonzero;"/><path d="M201.155,244.998c1.241,0.157 13.898,8.976 17.131,8.419c0.579,-0.1 0.048,-0.128 0.622,0.009c0.615,2.138 1.412,12.388 1.589,15.012c-2.908,0.304 -14.38,0.838 -16.41,-0.74c-0.239,-0.826 -0.086,-2.002 -0.125,-3.002c-0.605,2.186 -0.906,3.62 -1.143,5.871c-0.945,-0.852 -2.049,-1.711 -3.048,-2.516c-0.5,-0.345 -1.006,-0.678 -1.521,-1c-6.926,-4.266 -14.492,-4.745 -22.249,-2.925c2.746,-6.804 6.607,-14.353 12.364,-19.061c4.772,1.776 8.082,2.005 12.792,-0.067" style="fill:#febc54;fill-rule:nonzero;"/><path d="M189.734,246.73c7.348,0.292 11.331,5.083 13.42,11.826c0.337,1.088 1.144,5.442 0.658,6.322c-0.31,-0.493 -0.309,-1.06 -0.393,-1.672c-1.248,-7.029 -4.305,-14.865 -12.499,-15.711c-1.162,-0.12 -2.301,0.089 -3.444,-0.1l0.058,-0.168c0.917,-0.462 1.175,-0.422 2.2,-0.495" style="fill:#030201;fill-rule:nonzero;"/><path d="M380.81,364.658c2.038,-0.14 4.164,-0.132 6.213,-0.158c0.033,2.119 -0.165,4.56 -0.288,6.698c-3.171,0.278 -6.949,0.341 -10.185,0.477l-18.13,0.786c-10.389,0.481 -20.781,0.906 -31.175,1.276c-5.88,0.241 -11.935,0.618 -17.792,0.751l-6.031,0.225c-0.114,-2.257 -0.176,-4.567 -0.259,-6.829c7.975,-0.606 17.656,-0.71 25.767,-1.024l51.881,-2.202Zm-168.812,6.798c2.207,-0.179 4.425,-0.183 6.633,-0.011c0.534,0.656 1.427,1.314 1.829,1.869c0.609,0.84 -0.016,3.733 -0.126,4.808c-5.416,0.049 -11.84,0.48 -17.283,0.718l-28.873,1.153c-6.356,0.263 -12.815,0.655 -19.169,0.735l-7.825,0.474c0.007,-2.365 0.051,-4.728 0.131,-7.091l64.684,-2.655Z" style="fill:#bc8450;fill-rule:nonzero;"/><path d="M263.25,276.007l0.372,0.057c1.25,1.554 5.268,13.789 6.556,16.503c2.54,5.355 6.285,9.838 7.94,15.521c0.916,3.146 1.025,5.982 -0.563,8.95c-3.642,-4.669 -8.668,-5.358 -13.963,-3.464c-0.721,0.334 -1.546,0.845 -2.245,1.25c0.824,-10.013 -1.738,-13.249 -4.922,-21.873c1.079,-0.966 2.091,-2.389 3.249,-3.38c0.852,-0.729 2.465,-1.217 2.836,-2.075l-0.204,-0.068c-2.283,0.442 -5.088,2.535 -5.796,4.749l-0.267,0.069c-0.491,-0.862 -0.497,-10.309 -0.571,-12.087c2.967,-2.165 4.081,-3.022 7.577,-4.153" style="fill:#febc54;fill-rule:nonzero;"/><path d="M263.163,291.815c0.942,-0.08 1.031,-0.101 1.974,0.101c-0.411,0.459 -4.254,1.237 -5.436,1.642c-0.595,0.26 -0.804,0.343 -1.438,0.451l0.401,-0.061l-0.422,0.042l-0.004,-0.151c1.257,-1.339 3.217,-1.726 4.925,-2.025" style="fill:#030201;fill-rule:nonzero;"/><path d="M166.326,386.646c0.705,-0.081 2.162,-0.098 2.921,-0.128c0.372,6.32 0.385,13.373 0.577,19.771l1.038,33.993c-1.728,0.2 -3.543,0.341 -5.282,0.504l-2.456,0.195c-0.356,-5.608 -0.387,-11.696 -0.624,-17.364c-0.566,-12.205 -1.047,-24.414 -1.442,-36.626l5.268,-0.344Zm-53.524,-18.26c0.313,0.291 0.212,0.296 0.375,0.826c0.669,0.714 6.086,2.636 7.488,3.241c-0.336,4.364 -4.536,50.829 -5.054,51.677c-1.939,0.312 -5.524,0.457 -7.602,0.599c1.258,-18.651 3.472,-37.537 4.793,-56.342m257.039,4.7l2.157,-0.077c0.224,2.898 0.238,6.314 0.333,9.267l0.552,15.663c0.315,8.792 0.978,18.126 0.964,26.893l-5.349,0.481l-1.952,0.171c-0.067,-5.594 -0.367,-11.484 -0.571,-17.1l-1.296,-35.049l5.162,-0.248Z" style="fill:#5f5c59;fill-rule:nonzero;"/><path d="M364.247,359.354c3.427,-0.241 5.651,-0.319 8.933,0.705c3.692,1.153 7.564,1.998 11.229,3.261c-20.494,1.383 -41.826,1.717 -62.405,2.685c-6.117,0.048 -12.72,0.537 -18.924,0.694c-0.034,-1.603 -0.137,-3.289 -0.209,-4.898c2.715,-0.243 6.025,-0.293 8.774,-0.401l14.438,-0.56l38.164,-1.486Z" style="fill:#bc8450;fill-rule:nonzero;"/><path d="M255.07,163.297c3.654,-0.529 12.594,-0.008 15.537,1.929c9.407,6.198 -10.224,12.012 -14.121,12.899c-2.309,-5.302 -3.738,-6.976 -8.726,-9.857c4.87,-1.548 12.499,-2.357 17.592,-1.693c0.983,0.128 4.077,1.126 5.349,1.445l0.185,-0.237c-2.282,-3.78 -15.844,-2.217 -19.485,-1.505c-15.625,2.794 -26.126,12.361 -41.073,15.02c12.928,-10.079 28.436,-16.318 44.742,-18.001" style="fill:#d5982c;fill-rule:nonzero;"/><path d="M220.875,324.392c1.214,-0.14 2.518,1.384 3.762,1.608c5.452,0.981 12.039,0.624 15.716,5.575c1.544,2.078 1.721,3.659 1.398,6.098c-0.434,0.585 -1.094,1.213 -1.616,1.744c-0.257,-2.905 -2.037,-7.1 -5.118,-7.883l-0.24,0.168c0.456,1.489 9.826,8.997 0.544,10.392c-0.751,0.045 -1.342,0.131 -1.944,-0.208l-0.122,-0.762c-0.29,-1.76 -1.572,-6.359 -4.04,-5.908c0.39,1.405 6.216,6.69 1.036,7.493c-2.266,0.201 -4.365,-0.761 -6.299,-1.592c-4.489,-1.931 -7.242,-3.269 -10.941,-6.434c1.323,-4.899 3.076,-8.129 7.863,-10.289" style="fill:#725a41;fill-rule:nonzero;"/><path d="M194.027,365.951c3.076,-0.328 9.784,2.997 13.39,3.389c0.754,0.082 3.272,0.805 3.91,1.082c-6.296,0.125 -12.85,0.55 -19.177,0.809l-41.407,1.626c-0.768,0.043 -2.798,0.202 -3.431,0.043c-3.292,-0.826 -10.464,-3.249 -13.246,-4.663c3.153,-0.051 6.395,-0.27 9.558,-0.375c16.787,-0.557 33.614,-1.511 50.402,-1.911" style="fill:#bc8450;fill-rule:nonzero;"/><path d="M253.489,284.14c0.798,-0.055 0.496,-0.167 1.083,0.122c0.889,2.055 -0.326,5.756 0.348,7.726c1.528,4.464 3.469,8.081 4.563,12.804c-0.946,-1.903 -4.888,-8.384 -6.709,-9.215c-1.21,0.092 -2.7,1.563 -3.703,2.393c0.918,1.677 2.26,3.489 3.355,5.091c2.316,3.389 4.269,6.426 5.917,10.205c1.657,4.144 1.378,4.205 0.069,8.461c-2.255,1.06 -3.606,1.241 -6.043,1.451c-6.782,-9.788 -6.619,-26.286 -7.197,-38.119c2.8,-0.288 5.476,-0.673 8.318,-0.921m-11.214,-50.528l-0.246,0.348c-2.678,3.722 -2.604,5.75 -3.701,9.757l-0.201,0.083c-1.228,-1.347 0.722,-6.214 1.369,-7.713c0.331,-0.765 1.174,-1.898 1.291,-2.626l-0.222,-0.033c-1.418,0.761 -2.765,5.246 -3.15,6.83c-0.168,0.694 -0.249,1.758 -0.583,2.271l-0.252,-0.082c-0.048,-0.187 -0.107,-0.375 -0.085,-0.565c0.453,-3.861 1.57,-7.529 4.114,-10.402c3.534,1.549 9.439,4.867 11.69,8.081c-1.639,3.168 -8.968,10.938 -9.295,13.98l0.168,0.196c0.948,-0.5 3.207,-4.385 4.142,-5.631c3.939,3.371 7.058,9.016 9.625,13.511c-1.186,0.787 -2.535,1.637 -3.681,2.459c-0.558,-1.464 -1.627,-6.688 -2.752,-7.287c-0.194,0.839 1.9,8.765 2.235,10.212c-3.618,-0.005 -5.262,0.118 -8.767,0.732c-0.621,-5.449 -1.861,-13.174 -2.562,-18.374c-0.313,-2.319 3.367,-10.657 4.621,-12.94c-3.303,3.27 -4.07,7.548 -5.227,11.948c-0.11,-0.332 -0.215,-0.667 -0.313,-1.003c-0.912,-3.167 2.428,-9.929 4.051,-12.753c-2.22,1.811 -3.381,4.897 -4.049,7.604c-0.237,0.958 -0.436,2.291 -0.971,3.066l-0.219,-0.018c-1.282,-2.042 2.177,-9.106 2.919,-11.475l0.053,-0.174Z" style="fill:#febc54;fill-rule:nonzero;"/><path d="M242.418,218.626c3.246,0.378 6.579,1.406 10.133,1.789c2.326,0.25 8.299,0.108 9.806,0.521c4.943,1.355 7.951,5.219 10.413,9.3l0.198,-0.022c0.434,-0.842 0.045,-1.648 -0.415,-2.389c-2.097,-3.375 -4.976,-5.634 -8.412,-7.466c1.368,-0.149 2.739,-0.276 4.111,-0.382c3.513,1.708 4.929,2.539 7.544,5.412c2.683,3.497 5.256,10.634 1.282,14.488c-0.869,0.843 -3.333,1.832 -4.561,1.588c-6.747,-1.339 -5.593,-10.708 -10.751,-14.345c-2.404,-1.763 -4.124,-1.393 -6.62,-2.023c-3.057,-0.772 -10.89,-4.081 -12.729,-6.472" style="fill:#ed403d;fill-rule:nonzero;"/><path d="M228.066,431.952c8.726,5.716 20.865,9.981 31.094,11.974c7.287,1.42 20.082,1.109 26.433,-3.336c0.042,1.864 0.098,3.113 -0.484,4.907c-0.905,1.191 -2.45,2.048 -3.864,2.516c-15.832,5.242 -33.556,-0.557 -47.822,-7.757c-4.232,-2.136 -5.838,-3.376 -5.357,-8.304" style="fill:#fdfdfd;fill-rule:nonzero;"/><path d="M201.703,285.649c7.644,1.417 11.547,1.357 19.144,0.762c-0.161,4.862 -1.217,26.093 -2.73,29.766l-0.299,0.052c-0.738,-0.779 -0.545,-2.656 -0.741,-4.037c-1.356,-5.081 -4.225,-7.166 -8.138,-10.27c1.212,-1.675 2.445,-3.696 3.224,-5.611c-1.252,-1.422 -2.741,-2.323 -4.42,-3.136c-1.148,1.406 -2.266,3.252 -3.263,4.799c-1.592,-1.466 -2.16,-2.241 -3.368,-4.042c0.032,-2.643 0.356,-5.618 0.592,-8.283" style="fill:#febc54;fill-rule:nonzero;"/><path d="M271.843,429.368c6.559,-1.055 11.671,4.152 13.392,10.037c-2.999,2.767 -9.5,3.696 -13.388,4.068c-4.431,0.493 -9.33,-0.098 -13.719,-0.753c1.083,-7.746 5.847,-12.476 13.715,-13.352" style="fill:#679dc8;fill-rule:nonzero;"/><path d="M174.583,353.117c1.336,-0.106 2.936,-0.12 4.293,-0.167c0.728,1.214 1.603,2.509 2.377,3.707l-45.831,1.672l-15.51,0.625c-3.478,0.133 -7.855,0.681 -11.088,-0.426l-7.816,-2.848l73.576,-2.563Z" style="fill:#bc8450;fill-rule:nonzero;"/><path d="M274.311,427.47c2.173,0.288 5.975,1.625 8.789,2.061c14.644,2.267 35.097,5.478 49.477,0.953c0.245,1.976 0.193,3.468 -0.223,5.396c-0.22,0.247 -0.461,0.493 -0.731,0.685c-6.69,4.766 -38.442,-0.358 -47.019,-1.67c-2.162,-3.128 -4.112,-4.6 -7.642,-5.963c-0.908,-0.351 -1.993,-0.761 -2.651,-1.462" style="fill:#fdfdfd;fill-rule:nonzero;"/><path d="M183.259,359.337c0.725,-0.007 5.041,3.337 6.019,3.92c-4.458,0.344 -9.267,0.446 -13.756,0.637l-27.021,1.081c-4.156,0.156 -8.311,0.335 -12.464,0.538c-2.428,0.114 -5.148,0.31 -7.562,0.199c-0.606,-0.028 -2.986,-0.907 -3.697,-1.159c-2.483,-0.848 -5.299,-1.763 -7.718,-2.719l66.2,-2.496Z" style="fill:#bc8450;fill-rule:nonzero;"/><path d="M325.066,374.927l3.058,-0.088c-0.573,8.536 -1.775,17.083 -2.459,25.617c-0.367,4.584 -1.067,9.181 -1.368,13.764l-3.776,0.348c-0.62,0.096 -0.888,0.162 -1.526,0.11l-0.169,-0.228c0.523,-2.131 0.507,-2.617 -1.154,-4.19c0.527,-3.485 0.843,-8.242 1.193,-11.829c0.772,-7.768 1.501,-15.541 2.185,-23.317c1.339,-0.071 2.678,-0.133 4.017,-0.185" style="fill:#5f5c59;fill-rule:nonzero;"/><path d="M268.659,321.519c5.127,-0.535 9.22,1.269 12.407,5.379c2.107,2.718 1.323,10.796 -3.027,9.358c-0.367,-0.711 1.156,-6.117 -0.754,-7.788l-0.347,0.057c-0.829,1.489 2.711,7.651 -2.728,8.893c-1.438,0.018 -2.435,-0.211 -3.751,-0.706c0.277,-2.675 0.33,-6.143 -1.693,-8.213c-0.781,0.518 2.636,8.226 -0.4,8.356c-5.072,0.217 -6.413,-7.408 -7.177,-11.085c2.048,-2.519 4.336,-3.669 7.47,-4.249" style="fill:#725a41;fill-rule:nonzero;"/><path d="M158.507,381.703c0.429,-0.038 0.615,-0.023 1.047,0.001l0.227,0.282c0.517,15.949 1.903,43.786 2.114,58.783l-1.584,-0.821l-2.82,-1.421c-0.257,-4.306 -0.256,-9.492 -0.386,-13.856l-0.798,-25.271c-0.136,-4.993 -0.157,-12.711 -0.713,-17.57l2.913,-0.128Z" style="fill:#5f5c59;fill-rule:nonzero;"/><path d="M210.655,231.653c2.183,1 4.41,1.902 6.673,2.703c1.735,0.623 4.459,1.43 5.978,2.297c-0.324,1.75 -1.496,4.779 -2.099,6.582c-1.257,3.766 -1.545,6.157 -1.785,10.001c-1.007,-0.509 -2.167,-1 -3.209,-1.466c-4.838,-1.997 -9.472,-4.456 -13.838,-7.342c5.06,-3.806 6.528,-6.883 8.278,-12.776" style="fill:#febc54;fill-rule:nonzero;"/><path d="M344.575,353.12c6.202,-0.424 12.424,1.691 18.365,3.532c-4.552,0.57 -11.412,0.571 -16.179,0.753c-9.098,0.386 -18.198,0.712 -27.3,0.977c-5.44,0.337 -11.269,0.449 -16.738,0.62c-0.114,-1.44 -0.249,-2.879 -0.405,-4.315l42.256,-1.567Z" style="fill:#bc8450;fill-rule:nonzero;"/><path d="M175.005,339.974c0.432,0.549 1.447,6.745 1.907,8.3c-2.818,1.836 -7.175,3.342 -10.477,3.853c-10.201,1.58 -18.905,-0.325 -27.293,-6.235c-1.659,-1.206 -3.259,-2.631 -4.428,-4.324c7.646,2.3 12.368,5.562 21.428,5.278c6.638,-0.208 14.087,-1.993 18.863,-6.873" style="fill:#725a41;fill-rule:nonzero;"/><path d="M106.911,367.174c1.656,0.586 3.009,1.048 4.712,1.52c-0.044,5.92 -0.937,13.884 -1.474,19.931l-3.181,35.309l-0.147,0.279c-0.785,0.029 -2.864,-1.28 -3.65,-1.724c0.847,-9.761 1.749,-19.518 2.707,-29.269c0.754,-8.006 1.961,-18.177 1.033,-26.046" style="fill:#5f5c59;fill-rule:nonzero;"/><path d="M181.055,272.038c7.647,-0.532 14.597,2.496 20.317,7.39c-0.321,1.883 -0.553,3.677 -0.794,5.569c-2.571,-1.559 -5.282,-2.878 -8.096,-3.938c-7.771,-2.454 -14.717,-2.326 -22.297,0.521c0.729,-2.65 1.51,-5.285 2.342,-7.904c3.448,-0.946 4.982,-1.41 8.529,-1.639" style="fill:#296095;fill-rule:nonzero;"/><path d="M181.194,263.963c8.454,-0.556 15.522,1.613 21.445,7.756c-0.444,2.314 -0.663,4.273 -1.206,6.658c-1.779,-1.569 -3.061,-2.412 -5.09,-3.641c-8.069,-4.36 -14.932,-4.341 -23.471,-2.044c0.856,-2.741 1.593,-5.012 2.832,-7.632c1.791,-0.541 3.63,-0.908 5.491,-1.096m110.192,126.901c0.494,-0.372 3.309,-0.802 4.101,-0.949c0.531,3.314 0.18,6.039 -0.176,9.343c-1.461,0.388 -2.485,0.676 -3.976,0.87l-0.25,-0.213l-0.395,0.053c-1.156,0.51 -3.38,0.707 -4.57,0.383c-0.304,-0.094 -0.219,-0.041 -0.609,0.042c-0.821,0.415 -3.115,0.135 -4.094,0.056l-0.849,0.036c-0.721,0.017 -2.438,-0.173 -3.235,-0.242c-0.472,0.038 -0.543,-0.025 -1.007,-0.162c-0.612,-0.175 -1.379,-0.351 -1.817,-0.812c-1.641,-1.728 -1.187,-6.307 -1.136,-8.659c1.008,0.147 1.486,0.209 2.478,0.529l0.654,0.021l1.61,0.04c1.406,-0.624 7.225,-0.07 9.006,-0.081c1.228,0.149 2.14,-0.307 3.691,-0.061l0.573,-0.192Z" style="fill:#ed403d;fill-rule:nonzero;"/><path d="M273.375,390.608c1.008,0.147 1.486,0.209 2.478,0.529l0.654,0.021l1.61,0.04c0.528,0.054 1.755,0.143 2.214,0.259c-0.021,3.221 -0.048,5.82 0.239,9.027c-0.721,0.017 -2.438,-0.173 -3.235,-0.242c-0.472,0.038 -0.543,-0.025 -1.007,-0.162c-0.612,-0.175 -1.379,-0.351 -1.817,-0.812c-1.641,-1.728 -1.187,-6.307 -1.136,-8.659" style="fill:#ed403d;fill-rule:nonzero;"/><path d="M273.375,390.608c1.008,0.147 1.486,0.209 2.478,0.529c-0.156,2.945 0.121,5.453 0.576,8.353c0.051,0.322 0.027,0.239 -0.102,0.589c-0.612,-0.175 -1.379,-0.351 -1.817,-0.812c-1.641,-1.728 -1.187,-6.307 -1.136,-8.659" style="fill:#ed403d;fill-rule:nonzero;"/><path d="M275.853,391.137l0.654,0.021c-0.046,3.277 -0.025,5.872 0.827,9.083c-0.472,0.038 -0.543,-0.025 -1.007,-0.162c0.129,-0.35 0.152,-0.267 0.102,-0.589c-0.455,-2.9 -0.732,-5.408 -0.576,-8.353" style="fill:#2b0e09;fill-rule:nonzero;"/><path d="M291.387,390.864c0.494,-0.372 3.309,-0.802 4.101,-0.949c0.531,3.314 0.18,6.039 -0.176,9.343c-1.461,0.388 -2.485,0.676 -3.976,0.87l-0.25,-0.213l-0.395,0.053c-0.065,-0.542 0.107,-3.77 0.136,-4.554c0.056,-1.482 -0.037,-2.919 -0.014,-4.358l0.573,-0.192Z" style="fill:#ed403d;fill-rule:nonzero;"/><path d="M291.387,390.864c0.422,4.25 -0.061,5.543 -0.05,9.264l-0.25,-0.213l-0.395,0.053c-0.065,-0.542 0.107,-3.77 0.136,-4.554c0.056,-1.482 -0.037,-2.919 -0.014,-4.358l0.573,-0.192Z" style="fill:#2b0e09;fill-rule:nonzero;"/><path d="M287.123,391.116c1.228,0.149 2.14,-0.307 3.691,-0.061c-0.022,1.439 0.071,2.876 0.014,4.358c-0.03,0.783 -0.201,4.012 -0.136,4.554c-1.156,0.51 -3.38,0.707 -4.57,0.383c0.319,-2.182 -0.228,-6.515 -0.008,-8.814c0.019,-0.195 0.716,-0.329 1.009,-0.42" style="fill:#ed403d;fill-rule:nonzero;"/><path d="M278.117,391.197c1.406,-0.624 7.225,-0.07 9.006,-0.081c-0.294,0.091 -0.991,0.225 -1.009,0.42c-0.221,2.299 0.327,6.632 0.008,8.814c-0.304,-0.094 -0.219,-0.041 -0.609,0.042c-0.287,-2.601 0.122,-5.975 -0.242,-9.051c-1.4,0.002 -2.8,0.018 -4.2,0.048l-0.74,0.067c-0.458,-0.115 -1.686,-0.205 -2.214,-0.259" style="fill:#3f130e;fill-rule:nonzero;"/><path d="M280.331,391.456l0.74,-0.067c-0.034,3.36 0.006,5.671 0.348,9.059l-0.849,0.036c-0.287,-3.207 -0.26,-5.806 -0.239,-9.027" style="fill:#3f130e;fill-rule:nonzero;"/><path d="M361.029,373.471l2.516,-0.086l1.38,36.501l0.344,9.661c0.057,1.561 0.22,4.019 0.091,5.51c-0.449,0.142 -0.604,-0.045 -1.171,-0.264l-2.897,-1.405l-1.627,-48.923c-0.017,-0.645 -0.095,-0.535 0.218,-0.923l1.148,-0.071Z" style="fill:url(#_Linear1);fill-rule:nonzero;"/><path d="M319.66,420.896c2.403,-0.36 5.718,0.684 7.764,1.906c2.815,1.682 3.985,3.338 4.796,6.403c-2.967,1.317 -6.443,1.657 -9.657,2.06c-4.241,0.41 -8.506,0.512 -12.762,0.307c0.909,-5.957 3.936,-9.424 9.859,-10.677" style="fill:#679dc8;fill-rule:nonzero;"/><path d="M169.215,311.659c0.511,0.44 2.66,3.994 3.308,4.824c1.407,1.801 2.655,3.235 4.258,4.865c2.529,2.59 5.275,4.96 8.208,7.083c1.069,0.759 3.862,2.385 4.522,2.967c-0.299,0.245 -1.116,0.158 -1.604,0.163c-4.048,-0.168 -8.071,-0.987 -11.928,-2.173c-9.835,-3.025 -9.862,-9.396 -6.764,-17.729" style="fill:#febc54;fill-rule:nonzero;"/><path d="M241.391,219.211c3.601,2.81 8.667,5.783 13.099,6.777c5.607,1.258 7.285,0.655 10.04,6.634c-8.908,0.993 -15.871,-2.42 -24.507,-4.727c1.138,-0.929 1.323,-7.226 1.368,-8.684" style="fill:#725a41;fill-rule:nonzero;"/><path d="M202.788,277.416c7.332,1.198 10.77,1.188 18.063,0.581c0.009,1.483 0.104,6.208 -0.259,7.414l-0.455,0.191c-6.578,0.736 -11.83,0.504 -18.297,-0.928c0.196,-2.433 0.512,-4.856 0.947,-7.258" style="fill:#296095;fill-rule:nonzero;"/><path d="M113.872,336.232l0.339,0.078c0.272,0.738 0.293,6.955 0.362,8.17c0.211,3.709 0.662,6.01 1.772,9.545l-7.443,0.232l-0.198,-0.085c-2.05,-2.701 -2.171,-14.123 -2.222,-17.704c2.347,-0.16 5.015,-0.176 7.39,-0.236" style="fill:#5f5c59;fill-rule:nonzero;"/><path d="M204.115,268.78c5.705,0.966 10.674,1.148 16.404,0.482c0.088,1.462 0.57,6.795 0.058,7.751l-0.624,0.142c-5.994,0.563 -11.104,0.564 -17.05,-0.686c0.47,-2.552 0.874,-5.116 1.212,-7.689" style="fill:#ed403d;fill-rule:nonzero;"/><path d="M213.392,316.136c2.062,-0.204 3.258,0.5 4.902,1.692c1.706,1.237 5.123,3.267 4.352,5.745c-0.343,-0.239 -0.181,-0.115 -0.487,-0.369c-0.52,-0.087 -0.49,-0.09 -1.007,0.008l-0.267,-0.247l-0.39,0.337c-0.677,0.395 -2.591,1.571 -3.22,1.739c-0.314,0.272 -0.3,0.173 -0.426,0.508c-0.717,0.753 -2.971,3.63 -3.285,3.806c-1.607,-1.36 -6.592,-4.239 -8.883,-5.95c0.617,-1.123 1.495,-2.088 2.319,-3.076c0.293,-1.196 3.466,-3.626 4.588,-3.515l0.827,-0.351c0.637,-0.418 0.31,-0.351 0.979,-0.328" style="fill:#febc54;fill-rule:nonzero;"/><path d="M208.601,318.904c2.065,1.326 6.963,4.764 8.248,6.645c-0.717,0.753 -2.971,3.63 -3.285,3.806c-1.607,-1.36 -6.592,-4.239 -8.883,-5.95c0.617,-1.123 1.495,-2.088 2.319,-3.076l1.602,-1.426Zm4.792,-2.768c2.062,-0.204 3.258,0.5 4.902,1.692c1.706,1.237 5.123,3.267 4.352,5.745c-0.343,-0.239 -0.181,-0.115 -0.487,-0.369c-0.52,-0.087 -0.49,-0.09 -1.007,0.008l-0.267,-0.247c-1.259,-2.624 -5.169,-4.935 -7.492,-6.829" style="fill:#febc54;fill-rule:nonzero;"/><path d="M206.999,320.33c0.293,-1.196 3.466,-3.626 4.588,-3.515c-0.79,0.65 -1.59,1.115 -2.4,1.706c1.643,1.114 7.387,4.941 8.089,6.52c-0.314,0.272 -0.3,0.173 -0.426,0.508c-1.285,-1.881 -6.183,-5.319 -8.248,-6.645l-1.602,1.426Z" style="fill:#3f130e;fill-rule:nonzero;"/><path d="M212.414,316.464c0.637,-0.418 0.31,-0.351 0.979,-0.328c2.324,1.894 6.233,4.205 7.492,6.829l-0.39,0.337c-2.077,-2.606 -5.231,-5.103 -8.081,-6.838" style="fill:#2b0e09;fill-rule:nonzero;"/><path d="M315.712,330.195c1.906,-0.12 4.053,-0.109 5.978,-0.141c0.147,6.63 -0.019,10.419 1.835,16.901l-2.273,0.021c-1.73,0.078 -3.461,0.136 -5.192,0.173c-2.055,-6.546 -1.992,-10.138 -2.108,-16.907l1.76,-0.047Z" style="fill:#5f5c59;fill-rule:nonzero;"/><path d="M136.699,276.637l20.605,-0.081c3.659,-0.012 7.367,0.088 11.001,-0.117c0.857,-0.048 1.151,-0.077 1.757,0.469c0.044,0.67 0.114,0.373 -0.156,0.936c-0.695,0.329 -41.061,0.506 -45.108,0.519c-11.151,-0.004 -22.553,0.291 -33.651,0.146c0.819,-0.617 1.625,-1.138 2.48,-1.698c4.694,0.092 9.885,-0.051 14.619,-0.068l28.452,-0.106Z" style="fill:#bc8450;fill-rule:nonzero;"/><path d="M275.742,405.775c0.956,0.668 -1.367,3.64 2.915,5.697c4.859,2.335 8.238,0.639 13.302,0.992c0.531,0.037 1.533,0.616 2.023,0.893c-1.374,1.378 -2.293,2.48 -3.412,4.054l-0.923,1.503c-3.056,-0.209 -6.034,0.024 -9.075,-0.02c-3.404,-0.049 -5.626,-3.622 -7.785,-6.078c0.133,-2.979 0.034,-5.439 2.955,-7.042" style="fill:#679dc8;fill-rule:nonzero;"/><path d="M316.502,375.277l3.463,-0.072c-0.351,2.795 -0.527,6.119 -0.785,8.993c-0.538,6.11 -1.153,12.214 -1.844,18.309c-0.219,1.883 -0.378,5.527 -0.763,7.144c-1.199,-0.504 -2.136,-0.732 -3.391,-1.065c0.143,-3.028 0.555,-6.15 0.861,-9.179l1.152,-12.193c0.253,-2.584 0.477,-5.171 0.67,-7.76c0.088,-1.174 0.113,-2.861 0.307,-3.948l0.33,-0.229Z" style="fill:#5f5c59;fill-rule:nonzero;"/><path d="M242.577,229.892c1.607,0.156 4.462,1.086 6.096,1.596c6.158,1.923 9.396,2.789 15.839,2.392c-0.581,2.722 -1.223,4.724 -3.247,6.754c-2.943,2.379 -5.567,2.505 -9.01,1.222c0.381,-0.592 0.926,-1.379 0.864,-2.1c-0.342,-4.017 -9.378,-7.239 -11.259,-8.908l0.005,-0.289l0.711,-0.668Z" style="fill:#725a41;fill-rule:nonzero;"/><path d="M325.088,347.98c7.726,-0.483 9.265,0.539 16.649,2.546c-8.208,0.444 -16.421,0.79 -24.637,1.038c-5.014,0.258 -10.031,0.433 -15.051,0.524c-0.259,-1.178 -0.381,-2.071 -0.535,-3.27c7.695,-0.448 15.857,-0.639 23.573,-0.838" style="fill:#bc8450;fill-rule:nonzero;"/><path d="M277.205,408.818c0.24,-2.596 0.017,-4.616 -0.12,-7.201l0.209,-0.202l0.7,0.054l0.362,0.083c0.628,-0.003 1.162,0.018 1.766,0.234l0.441,-0.014c0.839,-0.094 1.087,-0.046 1.944,0.045c0.051,1.053 0.084,3.826 0.472,4.676l0.228,-0.092c0.304,-1.415 -0.505,-3.661 -0.008,-4.522c0.853,-0.142 1.155,-0.109 2.035,-0.076c0.044,1.484 0.05,2.746 0.307,4.218l0.181,0.154c0.683,-1.449 -0.594,-3.095 0.464,-4.458l0.674,-0.219l1.178,0.164l2.015,-0.123l0.496,0.035c0.055,1.061 0.119,2.133 0.162,3.193l-0.31,0.207c-2.167,1.698 -1.684,4.133 -1.136,6.429c-4.176,0.396 -9.011,0.957 -12.059,-2.584" style="fill:#fdfdfd;fill-rule:nonzero;"/><path d="M286.86,401.497l1.178,0.164c0.173,1.757 0.205,2.26 0.009,3.997c-0.872,-0.758 0.168,-3.383 -1.187,-4.161m-6.737,0.288l0.441,-0.014c0.136,1.158 0.405,3.175 0.196,4.255l-0.155,-0.016c-0.399,-1.139 -0.434,-2.988 -0.482,-4.225m-2.128,-0.317l0.362,0.083c0.237,1.122 0.361,2.264 0.371,3.411l-0.383,0.22l0.029,0.094l0.329,-0.024l-0.106,0.313c-0.597,-0.564 -0.563,-3.179 -0.602,-4.095" style="fill:#121415;fill-rule:nonzero;"/><path d="M290.052,401.538l0.496,0.035c0.055,1.061 0.119,2.133 0.162,3.193l-0.31,0.207c-0.365,-1.177 -0.333,-2.218 -0.348,-3.435" style="fill:#292b16;fill-rule:nonzero;"/><path d="M253.718,408.275c1.665,-0.248 4.592,-0.17 5.803,1.138c1.328,1.435 1.043,3.336 0.98,5.119c-1.199,0.288 -2.276,0.638 -3.45,1.01c-3.083,-1.405 -2.716,0.786 -5.824,1.05c-1.45,0.246 -2.835,0.731 -4.236,1.179c-0.974,-0.9 -1.877,-1.789 -1.946,-3.205c-0.222,-4.554 5.486,-5.862 8.672,-6.29" style="fill:#fdfdfd;fill-rule:nonzero;"/><path d="M131.958,368.816c1.112,0.178 4.046,1.325 5.208,1.758l9.078,3.405c0.009,2.343 -0.033,4.686 -0.126,7.027c-4.637,-1.533 -9.685,-3.545 -14.296,-5.288c-0.016,-2.302 0.029,-4.602 0.136,-6.901" style="fill:#bc8450;fill-rule:nonzero;"/><path d="M242.517,270.89c-0.907,-0.623 -1.817,-0.144 -2.316,-0.985l0.126,-0.374c1.305,-0.755 2.012,-1.174 1.735,-2.904c-0.178,-1.11 -1.293,-0.595 -2.112,-1.125c-0.464,-1.412 0.989,-0.436 1.789,-2.23c0.014,-2.063 -1.179,-1.531 -2.267,-1.894c-0.245,-0.546 -0.244,-0.284 -0.048,-0.81c1.222,-0.666 2.399,-1.432 1.25,-2.985c-0.525,-0.206 -0.737,-0.169 -1.294,-0.168l-0.2,0.001c-0.449,-0.431 -0.284,-0.157 -0.322,-0.952c0.417,-0.557 1.648,-1.097 2.343,-1.471c0.65,4.105 1.628,9.962 1.744,14.127c2.012,15.173 0.199,37.157 6.252,50.508l-0.274,0.132l0.066,0.192c0.186,0.552 0.305,0.733 0.153,1.293c-0.415,0.527 -0.147,0.321 -0.926,0.5l0.515,0.048c-0.589,0.192 -1.16,0.487 -1.697,0.29c-0.298,-0.599 -0.184,-0.502 -0.105,-1.293c0.68,-0.211 1.269,-0.285 1.342,-1.059c-0.407,-0.638 -1.848,-1.003 -2.622,-1.276l0.017,-0.216c2.385,-1.098 1.519,-3.211 -0.962,-3.251l-0.323,-0.003c-0.564,-1.01 1.308,-1.13 1.588,-2.571c-0.403,-1.497 -2.06,-1.397 -2.77,-2.439c0.188,-0.351 0.985,-0.578 1.621,-1.029c0.292,-0.737 0.011,-1.544 -0.263,-2.239c-0.484,-0.413 -0.828,-0.381 -1.474,-0.464l-0.261,-0.032l-0.204,-0.357c0.429,-1.087 2.084,-1.239 1.944,-2.538c-0.213,-1.994 -1.664,-1.071 -2.345,-1.712c-0.033,-0.683 -0.12,-0.393 0.152,-0.928c1.609,-0.347 2.263,-0.977 1.504,-2.678c-0.426,-0.472 -0.715,-0.445 -1.354,-0.552l-0.236,-0.037c-0.409,-0.368 -0.261,-0.137 -0.312,-0.794c0.54,-0.75 2.723,-0.238 1.913,-2.711c-0.537,-0.68 -1.145,-0.756 -1.991,-1.107c-0.066,-0.629 -0.141,-0.359 0.164,-0.852c0.625,-0.251 1.532,-0.521 1.621,-1.297c0.227,-1.988 -0.81,-1.634 -1.968,-2.151c-0.132,-0.668 -0.189,-0.373 0.116,-0.925c1.382,-0.659 2.276,-1.365 1.382,-2.998c-0.703,-0.631 -1.084,-0.111 -1.828,-0.725c-0.246,-1.555 0.994,-0.458 1.83,-1.953c0.088,-2.839 -1.268,-1.595 -2.076,-2.609c-0.098,-0.677 -0.179,-0.392 0.172,-0.904c1.539,-0.564 2.106,-1.147 1.353,-2.787c-0.421,-0.424 -0.71,-0.414 -1.305,-0.533l-0.228,-0.044c-0.47,-0.422 -0.319,-0.16 -0.395,-0.852c0.47,-0.608 0.709,-0.253 1.644,-0.833c0.289,-0.519 0.146,-1.744 0.141,-2.444" style="fill:#febc54;fill-rule:nonzero;"/><path d="M229.079,396.809c1.034,0.211 1.966,0.334 2.909,0.797l0.659,-0.018c0.889,0.154 2.042,0.373 2.928,0.337c1.314,-0.106 3.091,-0.061 4.331,0.381c0.798,0.06 1.62,0.134 2.415,0.18c0.003,2.51 -0.037,5.179 0.031,7.675c-1.165,-0.03 -4.079,0.019 -4.913,-0.506l-0.581,-0.017c-0.878,0.335 -3.465,-0.241 -4.237,-0.864c-0.17,0.043 -0.393,0.075 -0.524,0.161c-0.729,-0.214 -1.417,-0.377 -1.924,-0.976c-1.344,-1.587 -1.161,-5.168 -1.094,-7.152" style="fill:#ed403d;fill-rule:nonzero;"/><path d="M235.574,397.926c1.314,-0.106 3.091,-0.061 4.331,0.381c0.798,0.06 1.62,0.134 2.415,0.18c0.003,2.51 -0.037,5.179 0.031,7.675c-1.165,-0.03 -4.079,0.019 -4.913,-0.506l-0.581,-0.017c-0.26,-2.046 -0.098,-5.066 -0.12,-7.248c-0.362,-0.377 -0.558,-0.313 -1.163,-0.466" style="fill:#ed403d;fill-rule:nonzero;"/><path d="M235.574,397.926c1.314,-0.106 3.091,-0.061 4.331,0.381l-2.498,-0.021c-0.075,2.505 0.103,5.06 0.031,7.37l-0.581,-0.017c-0.26,-2.046 -0.098,-5.066 -0.12,-7.248c-0.362,-0.377 -0.558,-0.313 -1.163,-0.466" style="fill:#180404;fill-rule:nonzero;"/><path d="M229.079,396.809c1.034,0.211 1.966,0.334 2.909,0.797l0.659,-0.018c-0.089,1.446 0.091,6.623 -0.025,7.187c-0.17,0.043 -0.393,0.075 -0.524,0.161c-0.729,-0.214 -1.417,-0.377 -1.924,-0.976c-1.344,-1.587 -1.161,-5.168 -1.094,-7.152" style="fill:#ed403d;fill-rule:nonzero;"/><path d="M231.987,397.606l0.659,-0.018c-0.089,1.446 0.091,6.623 -0.025,7.187c-0.17,0.043 -0.393,0.075 -0.524,0.161c0.003,-2.601 -0.321,-4.48 -0.11,-7.33" style="fill:#180404;fill-rule:nonzero;"/><path d="M114.165,362.118c3.09,0.731 10.866,3.629 14.116,4.815c-0.003,2.384 0.028,4.851 -0.061,7.224c-4.364,-1.632 -9.957,-3.663 -14.149,-5.413c0.127,-1.785 0.016,-4.617 0.094,-6.626" style="fill:#bc8450;fill-rule:nonzero;"/><path d="M204.284,324.022l0.396,-0.617c2.291,1.711 7.277,4.589 8.883,5.95l-0.223,0.371c0.044,0.691 -0.994,3.28 -1.261,4.193l0.014,0.846c-0.018,0.494 -0.073,0.815 0.102,1.279c0.495,0.25 0.918,0.321 1.454,0.449l-0.028,0.334l-0.373,0.293c-2.202,0.226 -10.284,-3.915 -10.712,-5.708c-0.083,-0.358 -0.158,-0.717 -0.227,-1.078c-0.27,-0.993 -0.41,-1.538 0.333,-2.296c0.537,-1.688 0.829,-2.452 1.641,-4.017" style="fill:#febc54;fill-rule:nonzero;"/><path d="M202.31,330.335c-0.27,-0.993 -0.41,-1.538 0.333,-2.296c1.291,1.453 7.532,5.389 9.437,5.88l0.014,0.846c-0.018,0.494 -0.073,0.815 0.102,1.279c0.495,0.25 0.918,0.321 1.454,0.449l-0.028,0.334l-0.373,0.293c-2.202,0.226 -10.284,-3.915 -10.712,-5.708c-0.083,-0.358 -0.158,-0.717 -0.227,-1.078" style="fill:#febc54;fill-rule:nonzero;"/><path d="M202.31,330.335c-0.27,-0.993 -0.41,-1.538 0.333,-2.296c1.291,1.453 7.532,5.389 9.437,5.88l0.014,0.846c-2.469,-0.771 -7.107,-4.2 -9.305,-5.751c-0.342,0.462 -0.332,0.731 -0.478,1.32m1.974,-6.312l0.396,-0.617c2.291,1.711 7.277,4.589 8.883,5.95l-0.223,0.371c-1.618,-0.469 -7.456,-4.565 -9.057,-5.704" style="fill:#3f130e;fill-rule:nonzero;"/><path d="M242.398,416.248c-5.599,0.907 -10.178,0.533 -9.846,-6.147c0.053,-1.058 -0.311,-2.738 0.032,-3.736c0.56,-0.036 0.305,-0.099 0.787,0.206c0.711,1.557 -0.414,3.932 0.611,4.884c0.383,-0.624 -0.288,-3.771 0.214,-4.865c0.681,0.07 0.856,0.049 1.473,0.378c-0.047,1.412 0.076,2.825 0.365,4.208l0.113,-0.045c0.003,-1.192 -0.37,-3.36 0.435,-4.133c0.626,-0.125 1.061,0.094 1.682,0.293l0.151,0.186l0.277,-0.385c0.669,0.045 1.538,0.054 2.152,0.268l0.402,-0.019c0.596,-0.053 1.413,-0.099 1.983,-0.199l0.373,0.134c0.728,-0.073 1.215,-0.226 1.811,0.153c0.747,1.257 -0.815,2.031 -1.667,2.697l-0.281,0.253c-1.838,1.728 -1.759,3.671 -1.067,5.868" style="fill:#fdfdfd;fill-rule:nonzero;"/><path d="M243.602,407.277c0.728,-0.073 1.215,-0.226 1.811,0.153c0.747,1.257 -0.815,2.031 -1.667,2.697l-0.144,-2.85Z" style="fill:#fdfdfd;fill-rule:nonzero;"/><path d="M238.263,407.291l0.151,0.186l0.277,-0.385c0.021,1.003 0.136,3.455 -0.268,4.333c-0.209,-1.296 -0.411,-2.836 -0.16,-4.134" style="fill:#121415;fill-rule:nonzero;"/><path d="M240.844,407.36l0.402,-0.019c0.028,0.955 0.222,2.931 -0.333,3.654l0.238,-0.361l-0.376,0.153l0.173,0.212l0.197,-0.339l-0.44,-0.176c-0.112,-0.748 0.017,-2.381 0.14,-3.125" style="fill:#180404;fill-rule:nonzero;"/><path d="M243.229,407.142l0.373,0.134l0.144,2.85l-0.281,0.253c-0.326,-1.149 -0.389,-2.057 -0.236,-3.237" style="fill:#121415;fill-rule:nonzero;"/><path d="M252.429,397.275l2.211,-0.685c0.052,2.165 0.197,5.315 -0.469,7.334c-0.775,0.451 -1.159,0.733 -2.038,0.95l-0.7,-0.061c-0.601,0.618 -2.141,0.763 -3.061,0.925l-0.164,0.07l-0.306,-0.159l-0.387,-1.37c-0.047,0.35 -0.078,1.06 -0.262,1.278c-0.673,0.794 -3.257,0.602 -4.323,0.615l0.017,-7.703c1.597,-0.091 3.098,-0.146 4.679,-0.415l0.689,-0.189c0.82,0.091 2.451,-0.272 3.48,-0.341l0.634,-0.249Z" style="fill:#ed403d;fill-rule:nonzero;"/><path d="M247.626,398.055c0.122,2.286 -0.203,4.559 -0.111,6.224c-0.047,0.35 -0.078,1.06 -0.262,1.278c-0.673,0.794 -3.257,0.602 -4.323,0.615l0.017,-7.703c1.597,-0.091 3.098,-0.146 4.679,-0.415" style="fill:#ed403d;fill-rule:nonzero;"/><path d="M252.429,397.275l2.211,-0.685c0.052,2.165 0.197,5.315 -0.469,7.334c-0.775,0.451 -1.159,0.733 -2.038,0.95l-0.7,-0.061c0.405,-2.821 0.491,-4.446 0.361,-7.289l0.634,-0.249Z" style="fill:#dc4542;fill-rule:nonzero;"/><path d="M251.795,397.525l0.634,-0.249c0.09,2.846 -0.013,4.705 -0.296,7.599l-0.7,-0.061c0.405,-2.821 0.491,-4.446 0.361,-7.289" style="fill:#030201;fill-rule:nonzero;"/><path d="M247.626,398.055l0.689,-0.189c0.103,1.27 -0.129,7.478 0.058,7.873l-0.164,0.07l-0.306,-0.159l-0.387,-1.37c-0.092,-1.665 0.233,-3.939 0.111,-6.224" style="fill:#3f130e;fill-rule:nonzero;"/><path d="M316.726,275.534l10.465,-0.077c-0.591,0.379 -1.383,1.029 -1.958,1.473c-6.206,0.292 -13.157,0.151 -19.387,0.173l-29.95,0.178c-1.768,-0.003 -9.424,0.191 -10.485,-0.24c-0.409,-0.472 -0.301,-0.2 -0.292,-0.858c0.569,-0.345 47.023,-0.594 51.607,-0.649" style="fill:#bc8450;fill-rule:nonzero;"/><path d="M238.396,245.736c0.83,1.108 1.195,2.179 1.613,3.468c-4.151,6.942 -13.347,5.371 -19.446,2.345c0.179,-1.614 0.405,-2.952 0.696,-4.554c1.545,0.823 2.754,1.342 4.415,1.869c3.494,1.11 11.147,1.598 12.275,-3.05l0.447,-0.079Z" style="fill:#fdfdfd;fill-rule:nonzero;"/><path d="M98.403,356.032c4.068,1.247 8.339,2.944 12.438,4.313c0.045,2.179 -0.047,4.575 -0.091,6.774c-0.768,0.075 -10.98,-3.872 -12.341,-4.512c-0.031,-2.169 -0.004,-4.401 -0.005,-6.575" style="fill:#bc8450;fill-rule:nonzero;"/><path d="M231.19,409.456l0.221,0.162c0.309,0.831 0.164,3.354 0.145,4.347c3.908,6.633 10.179,1.481 14.442,4.307c-1.036,0.731 -2.591,1.599 -3.718,2.289l-2.549,1.848c-2.585,-0.88 -6.473,-1.567 -9.235,-1.804c-2.661,-3.366 -3.548,-8.696 0.695,-11.151m1.149,16.306c1.932,0.268 3.003,0.483 4.867,1.035c0.087,5.168 3.476,4.824 7.193,3.2c-0.686,2.76 -0.184,3.837 -0.701,5.762c-0.196,0.703 -0.355,1.657 -0.5,2.39c-2.412,-0.861 -7.493,-2.889 -9.619,-4.146c-0.256,-3.077 -0.597,-5.25 -1.24,-8.242" style="fill:#679dc8;fill-rule:nonzero;"/><path d="M301.35,403.702c2.948,0.012 3.247,0.696 3.335,3.499c0.153,4.87 -2.216,1.429 -3.319,2.107c-1.709,1.05 -3.752,1.888 -5.599,2.76c-0.244,0.13 -0.529,0.261 -0.781,0.384c-3.099,-0.596 -3.854,-3.347 -1.957,-5.751c1.672,-2.118 5.703,-2.802 8.321,-2.999" style="fill:#fdfdfd;fill-rule:nonzero;"/><path d="M279.075,423.779c3.052,0.807 6.102,0.15 9.315,0.244c1.862,2.937 3.108,3.21 6.395,2.122c2.017,1.332 2.635,2.122 3.795,4.101l-0.11,0.28c-3.635,-0.064 -15.27,-2.078 -18.843,-2.809l-0.553,-3.938Zm19.267,-1.687c1.847,-3.872 1.997,-1.709 4.984,-1.993l0.392,-0.199c0.489,0.333 0.947,1.459 1.042,2.019c2.389,0.484 1.9,-0.62 3.726,-1.834c0.041,0.596 0.142,0.406 -0.096,0.796l0.036,0.666c-0.124,0.504 -0.146,0.922 -0.534,1.227c-0.639,2.19 0.373,2.678 2.173,3.474c0.042,0.396 -1.082,3.78 -1.261,4.968l-0.046,0.319c-1.106,-0.036 -2.297,-0.16 -3.408,-0.253c-1.576,-4.487 -3.226,-6.267 -7.009,-9.19" style="fill:#679dc8;fill-rule:nonzero;"/><path d="M303.326,420.099l0.392,-0.199c0.489,0.333 0.947,1.459 1.042,2.019c2.389,0.484 1.9,-0.62 3.726,-1.834c0.041,0.596 0.142,0.406 -0.096,0.796l0.036,0.666c-0.124,0.504 -0.146,0.922 -0.534,1.227c-2.266,1.08 -5.846,0.302 -4.566,-2.675" style="fill:#121415;fill-rule:nonzero;"/><path d="M304.759,421.919c2.389,0.484 1.9,-0.62 3.726,-1.834c0.041,0.596 0.142,0.406 -0.096,0.796c-1.049,0.956 -1.62,1.956 -3.328,1.654c-0.349,-0.427 -0.329,-0.227 -0.303,-0.617" style="fill:#fdfdfd;fill-rule:nonzero;"/><path d="M93.705,286.263l0.469,0.043c0.378,0.918 1.365,17.251 1.539,19.398l-3.102,0.65l-0.345,-0.012l-0.235,-0.268c-0.301,-5.018 -1.141,-14.114 -1.374,-18.762l3.048,-1.049Zm2.164,29.4l0.229,-0.005l0.221,0.198c0.508,5.494 0.791,14.608 1.354,19.685l-2.967,0.096l-0.51,-0c-0.444,-0.52 -1.274,-17.283 -1.374,-19.356l3.046,-0.618Z" style="fill:#bc8450;fill-rule:nonzero;"/><path d="M252.804,275.889c0.521,-0.078 0.606,-0.055 1.139,-0.015c0.552,0.611 0.709,6.169 0.747,7.263c-2.693,0.239 -5.38,0.534 -8.061,0.886c-0.453,0.058 -0.691,0.04 -1.145,0.029c-0.555,-0.534 -0.568,-5.838 -0.685,-7.118c2.579,-0.534 5.383,-0.806 8.005,-1.046" style="fill:#296095;fill-rule:nonzero;"/><path d="M242.128,325.069l1.419,0.839c3.521,2.119 11.154,8.891 3.272,10.866c-1.634,-0.399 -2.283,-0.589 -3.785,-1.492c-0.245,-1.155 -0.322,-1.544 -0.75,-2.663c-0.571,-1.491 -2.763,-3.867 -2.484,-5.244c0.881,-0.453 1.568,0.951 1.859,1.611c0.222,-0.39 0.482,-0.678 0.766,-1.024l-0.108,0.066l0.094,-0.239l0.527,-0.038c-0.538,-0.453 -1.386,-0.851 -2.026,-1.188l0.733,-0.155c0.497,-0.526 0.344,-0.469 0.483,-1.34" style="fill:#ed403d;fill-rule:nonzero;"/><path d="M241.659,328.987c0.222,-0.39 0.482,-0.678 0.766,-1.024l-0.108,0.066l0.094,-0.239l0.527,-0.038l0.159,-0.03c1.499,1.175 4.825,3.639 4.854,5.394c0.043,2.632 -3.413,1.554 -4.399,-0.093c-0.833,-1.39 -1.515,-2.553 -1.892,-4.035" style="fill:#2b0e09;fill-rule:nonzero;"/><path d="M242.338,328.42c1.945,0.954 4.305,3.04 4.519,5.302c-2.776,0.238 -3.644,-3.179 -4.519,-5.302m-0.211,-3.351l1.419,0.839c-0.776,0.186 -0.561,-0.023 -0.95,0.448c0.131,0.469 0.438,1.003 0.5,1.365l-0.159,0.03c-0.538,-0.453 -1.386,-0.851 -2.026,-1.188l0.733,-0.155c0.497,-0.526 0.344,-0.469 0.483,-1.34" style="fill:#dc4542;fill-rule:nonzero;"/><path d="M250.806,267.823c0.577,-0.046 1.456,0.01 2.06,0.029c0.425,1.916 0.793,4.964 1.106,6.999c-2.118,0.077 -4.88,0.462 -6.976,0.77l-2.375,0.277c-0.157,-2.459 -0.343,-4.915 -0.559,-7.369c2.48,-0.351 4.264,-0.556 6.743,-0.705" style="fill:#ed403d;fill-rule:nonzero;"/><path d="M90.56,258.162l0.132,0.021l0.238,0.196c0.601,4.7 1.419,13.293 2.035,17.616c-0.904,0.621 -2.078,1.218 -3.061,1.753l-0.18,0.002c-0.453,-0.825 -1.953,-15.695 -2.187,-17.789c0.967,-0.528 2.064,-1.223 3.022,-1.799" style="fill:#bc8450;fill-rule:nonzero;"/><path d="M252.52,296.296c1.573,0.563 6.785,9.756 7.461,11.913c0.523,1.668 0.637,5.29 -0.022,6.971l-0.252,0.072l-0.292,-0.696c-1.947,-6.161 -5.787,-10.996 -9.471,-16.238c0.84,-0.605 1.755,-1.367 2.576,-2.021" style="fill:#febc54;fill-rule:nonzero;"/><path d="M251.818,417.409c0.633,-0.046 0.662,-0.08 1.294,0.098c-0.02,1.03 -12.119,5.924 -12.828,9.352c-0.095,0.461 0.025,0.863 0.336,1.214c0.255,0.288 0.674,0.424 1.05,0.415c3.526,-0.084 8.485,-6.593 10.993,-8.985c0.417,-0.398 0.718,-0.563 1.292,-0.541l0.078,0.356l-0.412,0.64c-2.663,2.97 -5.263,5.768 -8.4,8.357c-4.17,3.442 -9.356,1.983 -6.093,-3.544c2.078,-3.52 8.672,-6.452 12.689,-7.363" style="fill:#fdfdfd;fill-rule:nonzero;"/><path d="M104.42,306.871c2.665,-0.06 5.379,-0.056 8.048,-0.077c0.065,2.435 0.264,4.727 0.466,7.155c-2.608,0.003 -5.394,0.127 -8.013,0.198c-0.193,-2.423 -0.359,-4.849 -0.501,-7.276m208.082,-3.638c2.518,-0.083 5.038,-0.116 7.558,-0.1c0.034,1.178 0.504,5.864 0.312,6.654l-0.39,0.128c-2.454,0.027 -4.955,0.108 -7.413,0.163c-0.15,-1.18 -0.677,-5.804 -0.453,-6.712l0.387,-0.134Z" style="fill:#5f5c59;fill-rule:nonzero;"/><path d="M272.19,416.05l0.407,-1.949c3.548,3.965 5.373,7.903 5.747,13.259c-1.463,-0.369 -2.739,-0.67 -4.094,-1.35c-0.655,-0.329 -1.283,-0.872 -1.871,-1.11c-1.056,-0.215 -2.161,0.106 -2.922,-0.275l-0.116,-0.373c-0.498,-0.457 -1.156,-0.859 -1.725,-1.245c-0.581,-0.163 -0.402,0.009 -0.669,-0.398c0.351,-0.359 0.419,-0.417 0.663,-0.867l0.171,-0.323c2.322,0.8 6.678,0.879 5.794,-2.784l0.656,-0.663c-0.776,-0.981 -1.059,-1.169 -2.042,-1.923" style="fill:#679dc8;fill-rule:nonzero;"/><path d="M274.232,417.973c1.286,2.582 -0.005,3.45 -2.052,4.729c0.026,0.681 -0.006,1.591 0.198,2.2c-1.056,-0.215 -2.161,0.106 -2.922,-0.275l-0.116,-0.373c-0.498,-0.457 -1.156,-0.859 -1.725,-1.245c-0.581,-0.163 -0.402,0.009 -0.669,-0.398c0.351,-0.359 0.419,-0.417 0.663,-0.867l0.171,-0.323c2.322,0.8 6.678,0.879 5.794,-2.784l0.656,-0.663Z" style="fill:#121415;fill-rule:nonzero;"/><path d="M267.616,423.009c1.232,-0.304 3.098,-0.668 3.609,0.839c-0.247,0.579 -0.05,0.374 -0.592,0.654c-0.604,-0.061 -0.704,-0.05 -1.293,-0.248c-0.498,-0.457 -1.156,-0.859 -1.725,-1.245m32.134,-11.453l0.176,0.227c-0.27,0.458 -1.698,1.492 -2.225,1.913c-1.764,1.411 -7.314,7.438 -6.002,9.774c3.278,2.618 7.08,-9.295 9.1,-10.757l0.345,0.072c0.314,1.069 -0.113,1.428 -0.681,2.241c-1.376,2.507 -1.866,4.799 -3.527,7.521c-0.851,2.282 -6.875,5.207 -7.284,1.369c-0.551,-5.175 5.513,-11.691 10.097,-12.36" style="fill:#fdfdfd;fill-rule:nonzero;"/><path d="M221.829,291.028c0.772,-0.852 -0.02,-3.979 1.044,-5.17c0.606,0.177 1.475,0.328 1.852,0.779l0.112,0.483c-0.941,0.969 -1.913,-0.349 -1.981,2.032c-0.012,0.42 0.066,0.686 0.333,1.025c0.539,0.17 1.438,0.38 1.776,0.817l-0.011,0.303c-1.036,0.737 -2.32,-0.065 -2.549,1.764c0.656,1.839 2.033,1.595 2.09,2.668c-0.78,0.847 -2.281,-0.186 -2.269,2.32c0.688,1.727 2.286,0.688 1.962,2.262c-0.851,0.818 -2.037,-0.32 -2.234,1.646c-0.159,1.587 1.805,2.235 1.995,3.091c-0.995,0.582 -1.248,-0.062 -2.03,0.533c-0.417,0.715 -0.35,1.521 -0.253,2.341c0.77,0.983 1.258,0.082 1.744,1.157c-0.102,0.681 0.062,0.446 -0.379,0.806c-0.948,0.009 -0.978,-0.159 -1.553,0.3c-1.319,2.832 1.105,2.247 1.277,3.392c-0.895,1.293 -2.351,0.72 -2.587,2.194c0.324,0.878 0.881,1.283 1.622,1.859l-0.023,0.408c-0.845,0.61 -1.923,-0.31 -2.717,-0.818c1.426,-4.786 1.802,-14.717 2.308,-19.899c0.173,-1.775 0.17,-4.717 0.468,-6.292" style="fill:#febc54;fill-rule:nonzero;"/><path d="M102.693,336.6l2.666,-0.058c0.052,4.696 0.058,9.533 1.002,14.147c0.178,0.872 0.951,2.832 0.813,3.524l-0.458,0.059l-2.672,0.18c-0.853,-3.843 -2.075,-13.609 -1.671,-17.645l0.32,-0.208Zm207.196,-6.255l2.907,-0.061c0.337,6.365 0.161,10.774 2.051,16.988l-3.253,0.053c-0.45,-2.264 -0.968,-4.322 -1.174,-6.647c-0.304,-3.436 -0.322,-6.885 -0.531,-10.332" style="fill:#5f5c59;fill-rule:nonzero;"/><path d="M185.566,332.54c1.891,0.094 3.853,0.114 5.75,0.159c-0.185,2.796 -0.281,5.597 -0.286,8.399c-1.928,0.033 -3.922,-0.111 -5.853,-0.217c-0.012,-2.818 0.033,-5.538 0.389,-8.341" style="fill:#febc54;fill-rule:nonzero;"/><path d="M260.334,269.205c0.844,0.615 2.439,4.58 2.962,5.791c-2.71,0.974 -3.669,1.341 -6.051,2.895l-1.617,1.174c-0.252,-2.234 -0.522,-4.466 -0.809,-6.696c1.632,-1.382 3.554,-2.351 5.515,-3.164" style="fill:#296095;fill-rule:nonzero;"/><path d="M192.011,332.634c1.829,0.527 3.937,1.057 5.807,1.306c0.01,1.633 0.26,5.11 0.076,6.551l-0.285,0.197c-1.885,0.236 -3.955,0.278 -5.866,0.358c-0.02,-2.916 0.105,-5.495 0.267,-8.412" style="fill:#febc54;fill-rule:nonzero;"/><path d="M178.52,357.862c1.456,-0.095 2.316,-0.201 3.766,0.133c-0.819,0.663 -61.742,2.173 -69.148,2.956c-0.055,1.041 -0.046,2.282 -0.066,3.341c0.013,1.014 0.297,2.568 -0.67,3.074l-0.267,-0.201c-0.592,-1.546 -0.342,-5.03 -0.302,-6.81c11.515,-0.255 23.344,-0.917 34.865,-1.348c10.564,-0.396 21.278,-0.659 31.821,-1.144" style="fill:#bc8450;fill-rule:nonzero;"/><path d="M247.251,433.994c3.919,3.013 4.693,4.973 10.436,5.465l-0.556,2.919l-1.676,-0.323c-1.77,-0.453 -9.979,-2.699 -10.831,-3.654c1.742,-1.303 0.605,-2.636 2.627,-4.407" style="fill:#679dc8;fill-rule:nonzero;"/><path d="M179.88,331.601l5.085,0.879c-0.42,2.913 -0.546,5.411 -0.539,8.315c-1.694,-0.2 -3.342,-0.376 -5.022,-0.692c-0.228,-2.68 -0.025,-5.861 0.475,-8.502" style="fill:#febc54;fill-rule:nonzero;"/><path d="M109.123,279.572l0.65,0.052c0.578,0.628 0.612,3.902 0.698,4.993c-2.366,-0.019 -4.774,0.012 -7.144,0.019l-0.687,-0.025c-0.746,-0.7 -0.711,-3.877 -0.771,-4.994l7.255,-0.045Z" style="fill:#5f5c59;fill-rule:nonzero;"/><path d="M253.257,264.075c1.145,-0.822 2.494,-1.673 3.681,-2.459l0.33,0.835c0.999,1.862 2.033,3.845 2.873,5.78c-1.481,0.709 -3.45,1.653 -4.784,2.63l-0.432,0.285l-0.302,-0.065l-0.272,-0.632c-0.861,-0.836 -1.33,-5.156 -1.094,-6.374" style="fill:#ed403d;fill-rule:nonzero;"/><path d="M253.257,264.075c1.145,-0.822 2.494,-1.673 3.681,-2.459l0.33,0.835c-1.48,0.881 -2.534,1.477 -3.801,2.659c0.059,0.305 0.298,1.64 0.384,1.847c0.146,1.014 0.417,2.512 0.5,3.493c-0.861,-0.836 -1.33,-5.156 -1.094,-6.374" style="fill:#2b0e09;fill-rule:nonzero;"/><path d="M253.85,266.957c1.537,0.986 0.764,2.222 1.506,3.904l-0.432,0.285l-0.302,-0.065l-0.272,-0.632c-0.084,-0.98 -0.354,-2.478 -0.5,-3.493" style="fill:#dc4542;fill-rule:nonzero;"/><path d="M309.541,278.213c2.595,-0.028 5.191,-0.034 7.786,-0.019c0.216,1.642 0.388,3.11 0.516,4.761c-2.584,-0.013 -5.167,0.036 -7.749,0.147c-0.245,-1.616 -0.39,-3.261 -0.553,-4.889" style="fill:#5f5c59;fill-rule:nonzero;"/><path d="M174.763,330.165l4.424,1.31c-0.44,3.149 -0.58,5.07 -0.509,8.269c-0.771,0.17 -3.499,-0.831 -4.312,-1.147c-0.136,-2.819 -0.073,-5.646 0.397,-8.432" style="fill:#febc54;fill-rule:nonzero;"/><path d="M249.607,430.316c3.508,3.249 4.72,4.746 9.538,5.444c-0.387,0.935 -0.796,1.861 -1.226,2.777c-4.314,-0.114 -6.972,-2.327 -9.905,-5.203l1.594,-3.017Zm27.523,-11.547c4.299,1.86 7.474,0.93 12.124,1.012c-0.362,1.331 -0.443,1.84 -0.588,3.216l-0.188,0.183c-3.787,-0.004 -6.077,0.483 -9.833,-0.464c-0.444,-1.553 -0.855,-2.453 -1.515,-3.946" style="fill:#fdfdfd;fill-rule:nonzero;"/><path d="M228.13,419.306c2.499,2.031 4.049,10.91 4.221,14.017c-1.426,-0.727 -2.326,-1.189 -3.398,-2.422c-1.753,-2.017 -1.235,-8.928 -0.823,-11.595" style="fill:#679dc8;fill-rule:nonzero;"/><path d="M256.744,416.844c4.038,-2.525 13.5,-1.767 16.831,1.793c0.884,3.663 -3.472,3.583 -5.794,2.784c-1.183,-0.3 -9.308,-3.036 -9.507,-3.577c3.096,-0.765 12.369,4.818 13.762,1.662c-1.053,-4.308 -12.236,-2.828 -15.292,-2.662" style="fill:#fdfdfd;fill-rule:nonzero;"/><path d="M266.782,313.815c0.779,-0.063 0.623,-0.165 1.223,0.138c1.097,1.709 1.477,4.35 1.91,6.381c-1.417,0.146 -2.175,0.256 -3.561,0.569c-0.579,0.214 -0.613,0.256 -1.248,0.291c-0.691,-0.818 -1.73,-4.916 -2.078,-6.14c1.383,-0.666 2.278,-0.945 3.754,-1.239m-44.976,-41.229c-0.42,-6.167 -0.802,-12.18 -1.84,-18.282c0.89,0.634 2.523,1.139 2.989,1.727c0.274,1.529 -1.607,0.891 -1.694,2.931c0.576,1.24 2.078,1.051 2.611,1.854c-0.618,1.002 -2.269,0.226 -1.892,2.774c0.057,0.384 0.227,0.579 0.499,0.886c1.07,0.445 1.032,-0.145 1.735,0.496l-0.05,0.539c-0.63,0.497 -1.119,0.661 -1.855,0.98c0.06,1.954 -0.09,2.249 1.945,2.718c0.369,0.5 0.268,0.229 0.328,0.837c-0.698,0.743 -1.25,0.187 -1.838,0.924c-0.356,1.492 0.001,1.923 1.199,2.77l0.651,0.467c0.041,0.776 -1.053,0.931 -1.703,1.135c-0.619,-0.589 -0.71,-1.682 -1.083,-2.758" style="fill:#febc54;fill-rule:nonzero;"/><path d="M297.977,423.012c1.703,0.669 6.585,6.216 6.221,7.993c-0.555,0.193 -0.841,0.068 -1.474,-0.008c-0.918,-0.043 -1.988,-0.188 -2.914,-0.29c-1.38,-2.687 -1.862,-3.336 -4.278,-5.156c0.768,-0.669 1.73,-1.767 2.445,-2.539" style="fill:#fdfdfd;fill-rule:nonzero;"/><path d="M202.324,333.43c0.398,-0.019 0.278,0.027 0.739,0.302c0.57,0.806 0.556,4.864 0.63,6.08c-1.103,0.241 -2.46,0.434 -3.592,0.624c-0.504,0.082 -1.05,0.197 -1.449,-0.119c-0.208,-1.676 -0.138,-4.579 -0.147,-6.35c1.423,-0.031 2.453,-0.171 3.818,-0.537" style="fill:#febc54;fill-rule:nonzero;"/><path d="M131.792,366.798c13.125,-0.633 26.255,-1.171 39.388,-1.615c2.821,-0.117 19.643,-0.989 21.289,-0.534c-1.667,0.522 -11.513,0.614 -13.838,0.713l-45.361,1.819c-0.741,-0.089 -0.805,-0.088 -1.478,-0.384" style="fill:#bc8450;fill-rule:nonzero;"/><path d="M363.387,357.874c0.797,-0.043 1.653,-0.136 2.389,0.127c-1.261,0.552 -56.587,2.467 -60.305,2.544c-0.951,0.053 -1.576,0.141 -2.466,-0.181c0.933,-0.409 17.766,-0.85 19.575,-0.917l40.807,-1.572Z" style="fill:#9b7144;fill-rule:nonzero;"/><path d="M251.293,426.689c1.312,0.854 1.294,0.654 2.712,1.135c0.088,2.194 0.417,3.698 3.106,3.256c0.662,-0.109 0.48,1.012 0.925,1.602c0.361,0.48 0.393,0.51 0.879,0.864c-0.475,0.419 -0.757,0.591 -0.991,1.18c-3.278,-0.455 -5.65,-3.05 -7.814,-5.32c0.356,-0.903 0.787,-1.826 1.183,-2.716" style="fill:#679dc8;fill-rule:nonzero;"/><path d="M268.916,313.72c5.23,0.13 5.135,2.55 5.8,7.088c-1.283,-0.331 -2.869,-0.418 -4.187,-0.493c-0.205,-1.939 -1.051,-4.675 -1.613,-6.595" style="fill:#febc54;fill-rule:nonzero;"/><path d="M268.772,425.32c1.225,-0.156 3.405,-0.023 4.031,1.237c-0.311,0.213 -2.376,0.296 -2.898,0.334c-2.938,0.215 -5.346,1.293 -7.765,2.922c-0.756,0.68 -1.335,1.417 -2.332,1.372l-0.261,-0.29c0.067,-3.423 6.544,-5.107 9.224,-5.576m41.444,-12.066c1.472,0.365 5.433,1.458 6.241,-0.154c-0.241,-2.565 -3.675,-2.207 -5.535,-2.591c-1.632,-0.337 -5.031,0.701 -6.217,0.352c0.388,-1.331 4.418,-1.338 5.638,-1.382c2.443,-0.089 9.142,0.907 7.576,4.64c-0.246,0.591 -1.117,0.868 -1.702,0.948c-2.52,0.343 -4.228,-0.601 -6.415,-1.519l0.415,-0.293Z" style="fill:#fdfdfd;fill-rule:nonzero;"/><path d="M207.948,294.244c1.123,0.556 2.365,1.475 3.38,2.208c-0.829,1.672 -1.815,3.262 -2.945,4.747c-1.062,-0.51 -2.385,-1.775 -3.244,-2.584l2.809,-4.371Zm-36.464,34.461l2.711,1.254c-0.504,2.981 -0.588,5.183 -0.606,8.145c-3.766,0.42 -2.514,-7.399 -2.105,-9.4" style="fill:#febc54;fill-rule:nonzero;"/><path d="M230.636,421.369c3.108,0.471 5.367,0.949 8.377,1.74l-1.055,1.64l-0.363,0.714c-0.827,0.509 -3.926,-0.548 -5.655,-0.67c-0.446,-1.137 -0.881,-2.278 -1.304,-3.424" style="fill:#fdfdfd;fill-rule:nonzero;"/><path d="M262.464,315.387c0.732,1.773 1.03,3.966 2.041,6.268c-1.098,0.586 -1.58,0.911 -2.59,1.638l-0.216,0.171l-0.267,-0.078c-0.579,-1.02 -0.933,-2.151 -1.335,-3.26c0.235,-1.213 0.524,-2.416 0.802,-3.62c0.476,-0.376 1.062,-0.765 1.564,-1.117" style="fill:#febc54;fill-rule:nonzero;"/><path d="M100.409,306.941l2.757,-0.033c0.136,2.43 0.386,4.871 0.611,7.296l-2.743,-0.005l-0.625,-7.258Z" style="fill:#5f5c59;fill-rule:nonzero;"/><path d="M261.817,369.429l2.384,-0.063c-0.018,1.364 0.424,6.321 0.122,6.94l-2.917,0.024c0.009,-1.75 0.007,-3.52 0.041,-5.267c0.015,-0.816 -0.093,-1.194 0.371,-1.633" style="fill:#bc8450;fill-rule:nonzero;"/><path d="M251.301,423.956l0.128,0.147c-0.123,0.831 -3.383,7.46 -4.173,8.448c-0.798,0.997 -1.035,0.994 -2.198,1.132c-1.291,-2.802 4.436,-7.959 6.243,-9.727" style="fill:#fdfdfd;fill-rule:nonzero;"/><path d="M221.805,272.586c0.374,1.076 0.464,2.169 1.083,2.758c0,0.744 -0.089,1.545 0.242,2.185c0.418,0.307 0.387,0.336 0.894,0.337c0.057,-0.015 0.116,-0.022 0.175,-0.022c0.383,0 0.699,0.316 0.699,0.699c0,0.383 -0.316,0.699 -0.699,0.699c-0.116,0 -0.229,-0.029 -0.331,-0.083c-0.966,0.387 -0.94,1.288 -0.65,2.156c0.864,0.899 1.186,0.365 1.804,1.223l-0.114,0.37c-0.91,0.372 -1.255,0.235 -1.79,0.819c-0.047,0.283 -0.259,2.169 -0.245,2.13c-1.064,1.191 -0.272,4.317 -1.044,5.17c-0.089,-2.403 0.111,-5.704 0.146,-8.196c0.028,-3.416 -0.028,-6.833 -0.169,-10.246" style="fill:#d5982c;fill-rule:nonzero;"/><path d="M224.024,277.867c0.063,-0.018 0.128,-0.027 0.193,-0.027c0.383,0 0.699,0.316 0.699,0.699c0,0.325 -0.226,0.609 -0.543,0.681c-0.051,0.012 -0.103,0.018 -0.156,0.018c-0.383,0 -0.699,-0.316 -0.699,-0.699c0,-0.311 0.207,-0.586 0.506,-0.672" style="fill:#febc54;fill-rule:nonzero;"/><path d="M308.023,303.356l2.893,-0.028l0.505,6.777l-2.822,0.017c-0.066,-1.97 -0.299,-4.847 -0.576,-6.766" style="fill:#5f5c59;fill-rule:nonzero;"/><path d="M343.15,351.626c0.626,-0.056 1.1,-0.128 1.621,0.222c-1.089,0.511 -36.688,1.596 -40.376,1.734c-1.017,0.109 -1.156,0.174 -2.097,-0.124l0.099,-0.128c1.539,-0.154 3.043,-0.229 4.586,-0.301c12.037,-0.568 24.143,-0.623 36.167,-1.402" style="fill:#725a41;fill-rule:nonzero;"/><path d="M203.978,334.343c2.515,1.536 4.081,2.355 6.73,3.517l-0.023,0.178l-0.921,0.37c-1.834,0.456 -3.671,0.897 -5.511,1.323l-0.274,-5.389Z" style="fill:#febc54;fill-rule:nonzero;"/><path d="M317.102,418.71c1.146,-0.08 1.84,-0.222 2.645,0.764c0.079,-0.138 -6.525,2.396 -7.664,3.077c-0.885,0.648 -1.126,0.984 -2.144,0.861l-0.224,-0.298c0.109,-2.581 5.301,-4.027 7.387,-4.404" style="fill:#fdfdfd;fill-rule:nonzero;"/><path d="M297.5,389.319c0.263,-0.012 0.214,0.018 0.49,0.145c0.533,1.742 0.37,5.092 0.042,6.919c-0.243,1.355 -0.394,1.695 -1.459,2.437l-0.292,0.027c-0.485,-0.943 0.222,-3.217 0.184,-4.374c-0.051,-1.584 -0.506,-3.01 -0.214,-4.583c0.424,-0.519 0.425,-0.37 1.249,-0.571m-68.306,-66.322c0.734,-0.354 0.693,-0.336 1.511,-0.257l-0.041,0.182l0.26,0.266l-0.032,0.22c-0.111,0.825 -0.15,0.889 0.088,1.651l0.128,-0.36l0.202,0.726c-0.614,0.93 -2.607,0.446 -3.594,0.307c-0.18,-0.263 -0.143,-0.139 -0.177,-0.344c-0.912,-0.205 -3.271,-0.298 -3.486,-1.359c0.809,-0.761 3.888,-0.893 5.14,-1.032" style="fill:#dc4542;fill-rule:nonzero;"/><path d="M229.194,322.997c0.734,-0.354 0.693,-0.336 1.511,-0.257l-0.041,0.182l0.26,0.266l-0.032,0.22c-0.111,0.825 -0.15,0.889 0.088,1.651l0.128,-0.36l0.202,0.726c-0.614,0.93 -2.607,0.446 -3.594,0.307c-0.18,-0.263 -0.143,-0.139 -0.177,-0.344c0.668,-0.017 1.176,0.29 1.828,-0.034c0.359,-0.714 0.06,-1.508 -0.174,-2.357" style="fill:#180404;fill-rule:nonzero;"/><path d="M230.663,322.923l0.26,0.266l-0.032,0.22c-0.111,0.825 -0.15,0.889 0.088,1.651c-0.062,0.319 0.019,0.188 -0.254,0.385l-0.293,-0.19c-0.524,-0.914 -0.7,-1.667 0.231,-2.333" style="fill:#ed403d;fill-rule:nonzero;"/><path d="M230.705,322.741c0.656,-0.131 1.135,-0.297 1.767,-0.138c0.601,-0.053 1.804,-0.345 2.172,0.129l0.464,0.535c-0.14,0.859 0.465,1.675 0.904,2.484c-0.188,0.633 -0.1,0.728 -0.517,1.106c-0.295,-0.165 -0.758,-0.563 -0.962,-0.633l-0.23,0.08c-0.343,0.16 -0.437,0.15 -0.813,0.233c-0.786,-0.208 -1.978,-0.596 -1.963,-1.529l0.068,-0.996l0.036,-0.483l-0.175,-0.113c-0.407,0.599 -0.366,0.591 -0.347,1.285l-0.128,0.36c-0.238,-0.762 -0.2,-0.826 -0.088,-1.651l0.032,-0.22l-0.26,-0.266l0.041,-0.182Z" style="fill:#2b0e09;fill-rule:nonzero;"/><path d="M231.594,324.011c0.482,-0.135 0.773,0.055 1.252,0.245c0.246,0.571 0.22,0.287 0.103,0.879c-0.563,0.354 -0.268,0.286 -0.908,0.243l-0.515,-0.37l0.068,-0.996Zm2.708,2.293c-0.766,-0.083 -0.681,0.05 -1.145,-0.366c0.086,-0.74 0.318,-0.871 1.062,-1.08c0.598,0.272 0.538,0.813 0.312,1.366l-0.23,0.08Z" style="fill:#ed403d;fill-rule:nonzero;"/><path d="M232.472,322.603c0.601,-0.053 1.804,-0.345 2.172,0.129l-0.313,0.292c-0.675,0.193 -1.175,0.269 -1.821,-0.024l-0.037,-0.396Z" style="fill:#dc4542;fill-rule:nonzero;"/><path d="M265.999,424.059c0.679,-0.087 1.104,-0.017 1.738,0.176l0.102,0.243c-2.341,0.473 -3.158,0.53 -5.381,1.537c-1.396,0.633 -4.113,2.842 -4.959,3.039c-0.625,0.392 -0.317,0.355 -0.921,0.288l-0.231,-0.317c0.168,-1.4 2.458,-2.87 3.667,-3.495c1.941,-1.004 3.842,-1.296 5.985,-1.471" style="fill:#fdfdfd;fill-rule:nonzero;"/><path d="M254.947,323.919l0.437,-0.057c1.329,0.46 3.086,3.142 3.918,4.316l-1.847,0.886l-0.167,0.054c-0.615,-0.209 -3.48,-3.976 -4.082,-4.761c0.401,-0.351 1.169,-0.365 1.741,-0.438" style="fill:#febc54;fill-rule:nonzero;"/><path d="M311.62,416.129c0.821,-0.03 1.832,0.061 2.549,0.484l-0.008,0.328c-0.756,0.417 -1.916,0.418 -2.779,0.636c-1.613,0.407 -3.27,1.355 -4.596,2.33l-0.197,0.147c-0.366,0.397 -0.464,0.488 -0.888,0.822c-0.649,-0.147 -0.61,-0.364 -1.148,-1.052c2.355,-2.321 3.823,-3.07 7.068,-3.694" style="fill:#fdfdfd;fill-rule:nonzero;"/><path d="M305.569,278.211l2.802,0.022c0.217,1.603 0.417,3.208 0.6,4.815l-2.737,0.003c-0.196,-1.669 -0.384,-3.177 -0.665,-4.84m-207.485,1.421l2.563,-0.013c0.208,1.76 0.318,3.297 0.427,5.057l-2.531,-0.032l-0.458,-5.012Z" style="fill:#5f5c59;fill-rule:nonzero;"/><path d="M129.275,366.839c0.857,-0.045 1.661,-0.041 2.517,-0.04c0.672,0.296 0.736,0.295 1.478,0.384c-0.725,0.098 -1.642,0.154 -2.386,0.222c-0.069,2.018 0.163,4.522 -0.104,6.424l-0.292,0.215c-0.671,0.026 -0.712,0.146 -1.17,-0.152c-0.204,-1.384 -0.065,-5.455 -0.043,-7.052" style="fill:#bc8450;fill-rule:nonzero;"/><path d="M210.231,152.794c0.416,-0.008 0.832,-0.005 1.247,0.011c0.702,0.028 1.329,0.055 1.779,0.535c-0.396,0.791 -4.031,1.973 -5.026,2.37l-2.665,1.089c1.155,-2.421 2,-3.244 4.665,-4.005" style="fill:#d5982c;fill-rule:nonzero;"/><path d="M264.712,422.411c0.65,-0.018 0.933,-0.143 1.36,0.319c-0.669,0.472 -3.677,0.652 -4.828,1.104c-1.755,0.687 -2.989,1.528 -4.483,2.64l-0.272,0.165c-0.558,-0.278 -0.526,-0.246 -0.846,-0.78c0.365,-2.366 7.054,-3.33 9.069,-3.447m32.412,-18.883c-1.703,0.527 -4.001,1.536 -5.077,2.98c-0.67,0.885 -0.962,2.001 -0.812,3.1c0.08,0.61 0.267,1.158 -0.147,1.622l-0.387,-0.098c-0.396,-0.355 -0.526,-0.513 -0.659,-1.022c-1.163,-4.46 3.118,-6.068 6.632,-6.979l0.45,0.396Zm-2.673,-2.616l0.472,-0.197c0.59,0.462 0.39,0.897 0.245,1.566l-0.325,0.292l-0.746,0.238l-1.1,0.56l-0.506,0.252c-0.642,0.373 -1.203,0.67 -1.783,1.143c-0.043,-1.06 -0.107,-2.133 -0.162,-3.193c0.809,-0.318 0.848,-0.31 1.733,-0.289l0.507,-0.222c0.387,-0.049 0.919,-0.146 1.288,-0.113l0.376,-0.036Z" style="fill:#fdfdfd;fill-rule:nonzero;"/><path d="M294.452,400.912l0.472,-0.197c0.59,0.462 0.39,0.897 0.245,1.566l-0.325,0.292l-0.746,0.238l-1.1,0.56c-0.239,-0.688 -0.195,-1.563 -0.211,-2.309c0.387,-0.049 0.919,-0.146 1.288,-0.113l0.376,-0.036Z" style="fill:#fdfdfd;fill-rule:nonzero;"/><path d="M294.452,400.912l0.472,-0.197c0.59,0.462 0.39,0.897 0.245,1.566l-0.325,0.292c-0.557,-0.457 -0.386,-0.972 -0.392,-1.661" style="fill:#fdfdfd;fill-rule:nonzero;"/><path d="M294.452,400.912c0.006,0.689 -0.164,1.204 0.392,1.661l-0.746,0.238l-0.023,-1.862l0.376,-0.036Z" style="fill:#121415;fill-rule:nonzero;"/><path d="M292.281,401.283l0.507,-0.222c0.015,0.746 -0.029,1.621 0.211,2.309l-0.506,0.252l-0.212,-2.339Z" style="fill:#292b16;fill-rule:nonzero;"/><path d="M274.221,315.321c2.55,1.224 3.114,4.208 3.433,6.767c-0.845,-0.351 -1.525,-0.627 -2.337,-1.066c0.124,-2.052 -0.554,-3.669 -1.095,-5.701" style="fill:#d5982c;fill-rule:nonzero;"/><path d="M235.107,323.267c0.687,-0.504 0.442,-0.463 1.204,-0.564c1.719,0.553 2.977,3.879 1.552,4.551c-0.894,-0.222 -1.299,-0.785 -1.853,-1.503c-0.439,-0.809 -1.043,-1.625 -0.904,-2.484" style="fill:#ed403d;fill-rule:nonzero;"/><path d="M306.232,413.51c0.922,0.144 1.762,0.419 2.657,0.681c-2.711,0.498 -4.421,0.805 -6.651,2.511c-0.522,0.439 -0.731,0.691 -1.394,0.864l-0.269,-0.176c0.116,-2.169 3.939,-3.306 5.657,-3.879m-43.793,3.882c1.846,-0.321 7.578,0.267 8.565,1.952c-1.976,0.787 -6.654,-1.143 -8.565,-1.952m40.129,0.692c0.382,-1.305 2.963,-2.056 4.112,-2.466l0.099,1.13c-0.922,0.662 -1.779,1.235 -2.584,2.039l-0.062,0.322c-0.769,0.359 -1.174,0.368 -1.961,0.176c-0.341,-0.409 -0.255,-0.177 -0.25,-0.724c0.217,-0.166 0.425,-0.318 0.646,-0.478" style="fill:#fdfdfd;fill-rule:nonzero;"/><path d="M302.569,418.084c0.546,0.402 0.946,0.928 1.627,0.703l-0.062,0.322c-0.769,0.359 -1.174,0.368 -1.961,0.176c-0.341,-0.409 -0.255,-0.177 -0.25,-0.724c0.217,-0.166 0.425,-0.318 0.646,-0.478" style="fill:#121415;fill-rule:nonzero;"/><path d="M258.52,422.565c-1.484,0.698 -4.704,2.966 -5.074,3.064c-0.361,-0.561 -0.242,-0.253 -0.281,-0.985c0.65,-1.569 2.681,-2.368 4.193,-3.131c0.716,0.351 0.802,0.34 1.162,1.052m11.454,5.323c1.489,-0.205 2.151,0.05 3.604,0.409c-3.054,0.043 -5.242,0.422 -8.011,1.717c-0.718,0.414 -1.373,0.961 -2.193,0.666l0.103,-0.363c1.718,-1.734 4.178,-2.168 6.497,-2.43m-23.93,-18.021l0.107,0.094c-3.13,3.806 -0.856,4.423 -1.844,6.251l-0.719,0.107c-1.697,-2.901 -0.058,-4.969 2.456,-6.453" style="fill:#fdfdfd;fill-rule:nonzero;"/><path d="M258.334,323.02c0.803,0.775 2.578,3.76 1.753,4.862l-0.285,0.006l-0.15,-0.377c-1.025,-1.523 -1.984,-2.595 -3.266,-3.885c0.72,-0.146 1.258,-0.359 1.947,-0.606" style="fill:#febc54;fill-rule:nonzero;"/><path d="M257.357,421.513c3.154,-1.261 4.011,-1.41 7.211,-0.239c-2.21,0.321 -3.937,0.518 -6.048,1.291c-0.36,-0.712 -0.446,-0.701 -1.162,-1.052" style="fill:#fdfdfd;fill-rule:nonzero;"/><path d="M248.265,421.563c0.271,0.048 0.261,0.081 0.515,0.222c-0.168,0.846 -2.949,3.25 -3.738,3.827l-1.324,-1.115c1.611,-1.309 2.703,-2.008 4.547,-2.934" style="fill:#679dc8;fill-rule:nonzero;"/><path d="M261.583,365.138c0.91,0.183 1.717,0.425 2.606,0.679l-0.034,2.458l-2.558,0.038c-0.011,-1.058 -0.016,-2.117 -0.015,-3.175" style="fill:#bc8450;fill-rule:nonzero;"/><path d="M254.884,415.889c2.108,0.039 2.66,1.997 1.194,3.406c-0.314,0.025 -0.425,0.013 -0.74,-0.001c-1.13,-1.161 -1.754,-2.132 -0.454,-3.405" style="fill:#fdfdfd;fill-rule:nonzero;"/><path d="M308.486,420.085c3.083,-1.897 3.873,-1.826 7.461,-2.241l-0.156,0.071c-1.423,0.639 -2.232,0.699 -3.762,1.516c-1.222,0.652 -2.492,1.61 -3.603,2.116l-0.036,-0.666c0.238,-0.391 0.137,-0.201 0.096,-0.796" style="fill:url(#_Linear2);fill-rule:nonzero;"/><path d="M301.181,410.149c2.093,0.124 3.347,1.442 1.834,3.319c-0.359,-0.176 -2.033,-1.965 -2.199,-2.432c-0.086,-0.242 0.228,-0.645 0.365,-0.886" style="fill:#fdfdfd;fill-rule:nonzero;"/><path d="M238.513,323.532c1.451,0.52 2.232,0.853 3.614,1.537c-0.139,0.872 0.014,0.815 -0.483,1.34l-0.733,0.155c-1.574,-1.064 -1.596,-1.339 -2.399,-3.032" style="fill:#ed403d;fill-rule:nonzero;"/><path d="M248.077,181.979c1.66,0.892 1.577,1.822 0.511,3.184c-1.783,-0.447 -1.427,-2.08 -0.511,-3.184m9.345,237.195c0.694,0.13 1.025,0.083 1.509,0.49c-0.196,0.166 -3.153,1.5 -3.89,1.914c-0.425,0.224 -0.886,0.433 -1.321,0.641l-0.196,-0.362c0.393,-1.316 2.213,-1.316 3.322,-1.839l0.577,-0.845Z" style="fill:#fdfdfd;fill-rule:nonzero;"/><path d="M297.53,414.964l0.09,0.091c0.114,0.819 -0.775,2.583 -1.256,3.248c-0.312,0.431 -0.357,0.304 -0.928,0.35l-0.45,-0.471c0.04,-1.051 1.777,-2.477 2.544,-3.218" style="fill:#679dc8;fill-rule:nonzero;"/><path d="M242.442,425.221c0.608,0.203 1.25,0.383 1.53,0.959c-0.264,0.53 -0.793,0.699 -1.348,0.988c-0.757,0.261 -0.628,0.352 -1.256,0.172l-0.055,-0.388c0.349,-0.892 0.484,-0.985 1.129,-1.732m-6.296,-178.022c0.062,-1.208 0.101,-2.617 0.261,-3.798c0.747,0.814 1.335,1.44 1.988,2.335l-0.447,0.079l-0.363,-0.107c-0.69,0.54 -0.871,0.802 -1.44,1.491m57.222,173.048c0.777,0.321 0.704,0.156 1.132,0.736c-0.071,0.59 -0.717,1.098 -1.171,1.556c-0.536,0.199 -0.281,0.215 -0.777,0.08c-0.241,-0.776 0.43,-1.722 0.816,-2.372" style="fill:#fdfdfd;fill-rule:nonzero;"/><path d="M312.905,411.364l0.191,0.065l0.318,0.111c1.159,0.397 1.443,0.331 1.914,1.496c-0.76,0.004 -1.716,0.119 -2.301,-0.289c-0.305,-0.529 -0.204,-0.771 -0.123,-1.383" style="fill:#5f5c59;fill-rule:nonzero;"/><path d="M294.314,418.756c0.141,-0.08 0.301,-0.122 0.463,-0.122c0.516,0 0.94,0.424 0.94,0.94c0,0.013 -0,0.026 -0.001,0.039c-0.021,0.5 -0.438,0.9 -0.939,0.9c-0.516,0 -0.94,-0.424 -0.94,-0.94c0,-0.338 0.182,-0.651 0.477,-0.818" style="fill:#679dc8;fill-rule:nonzero;"/><path d="M308.445,411.42c0.943,-0.062 2.08,-0.301 2.895,0.01c0.307,0.49 0.227,0.213 0.116,0.887l-0.369,0.207c-0.895,-0.321 -2.493,-0.537 -3.013,-0.887l0.37,-0.217Z" style="fill:#d2d1dc;fill-rule:nonzero;"/><path d="M258.36,430.543c0.542,0.643 0.049,1.168 1.149,1.798c0.742,0.117 1.5,-0.327 2.271,-0.612l0.293,0.296c-1.731,1.251 -4.619,1.15 -3.713,-1.482" style="fill:#679dc8;fill-rule:nonzero;"/><path d="M258.914,433.545c0.768,-0.039 1.466,-0.063 2.231,-0.169c-1.383,1.378 -1.252,1.561 -3.222,1.349c0.234,-0.589 0.516,-0.761 0.991,-1.18" style="fill:#8eb1cd;fill-rule:nonzero;"/><path d="M309.802,413.547c-0.884,-0.342 -1.935,-0.723 -2.868,-0.915c-0.746,-0.154 -1.566,0.265 -2.119,-0.125l-0.037,-0.22c1.48,-0.353 4.034,0.474 5.439,0.967l-0.415,0.293Z" style="fill:#77757e;fill-rule:nonzero;"/><path d="M306.68,415.618c1.749,-0.283 2.84,-0.439 4.605,-0.498c-1.653,0.461 -3.005,0.77 -4.505,1.628l-0.099,-1.13Z" style="fill:#d2d1dc;fill-rule:nonzero;"/><path d="M247.51,407.004c0.333,0.469 0.261,0.216 0.238,0.779c-0.403,0.466 -0.88,0.56 -1.471,0.776c-0.304,-0.357 -0.331,-0.71 -0.256,-1.129c0.498,-0.443 0.815,-0.384 1.489,-0.427" style="fill:#fdfdfd;fill-rule:nonzero;"/><path d="M308.358,423.374c0.253,0.163 0.524,0.515 0.701,0.761l0.215,0.299c1.686,0.787 1.334,-0.438 2.456,-0.292c-1.024,1.605 -3.152,1.474 -3.372,-0.768" style="fill:#d2d1dc;fill-rule:nonzero;"/><path d="M239.636,321.726c0.295,-0.062 0.138,-0.067 0.468,0.054c-0.31,0.812 -0.753,0.976 -1.53,1.057c-0.603,-0.287 -0.687,-0.19 -0.89,-0.655c0.498,-0.342 1.317,-0.374 1.952,-0.457" style="fill:#dc4542;fill-rule:nonzero;"/><path d="M259.494,321.745c0.776,0.582 1.504,1.933 1.399,2.908l-0.464,-0.202c-0.719,-0.921 -0.939,-1.549 -0.935,-2.706" style="fill:#d5982c;fill-rule:nonzero;"/><path d="M249.671,406.609c0.356,0.099 0.191,0.001 0.459,0.347l-0.107,0.257c-0.543,0.48 -0.675,0.466 -1.371,0.612c-0.44,-0.131 -0.253,-0.019 -0.529,-0.398l0.105,-0.263c0.511,-0.473 0.756,-0.446 1.443,-0.555" style="fill:#d2d1dc;fill-rule:nonzero;"/><path d="M254.883,427.904l0.405,0.247c-0.092,0.961 -0.184,1.15 0.581,1.775c0.517,0.045 0.446,-0.061 0.885,0.21c-0.35,0.355 -0.539,0.27 -0.966,0.234c-1.102,-0.642 -1.216,-1.35 -0.904,-2.466" style="fill:#8eb1cd;fill-rule:nonzero;"/><path d="M244.943,434.5l0.263,0.217c0.267,0.824 -0.417,2.139 -0.77,2.934l-0.023,-0.015c-0.294,-0.604 0.314,-2.434 0.53,-3.136" style="fill:#fdfdfd;fill-rule:nonzero;"/><path d="M296.675,403.133c1.745,-0.342 2.637,-0.396 4.424,-0.464c-1.319,0.312 -2.644,0.598 -3.975,0.859l-0.45,-0.396Z" style="fill:#d2d1dc;fill-rule:nonzero;"/><path d="M147.399,230.192c0,0 -63.787,-14.239 -82.924,-11.637c-35.125,4.777 -30.084,-32.256 -26.131,-44.195c10.633,-32.114 87.931,-33.6 99.399,-12.298c28.56,53.05 -41.488,42.445 -30.369,47.986c11.119,5.54 40.024,20.145 40.024,20.145Z" style="fill:#eae8e3;stroke:#000;stroke-width:1.8px;"/><path d="M154.645,155.103c0,0 -19.067,-25.605 -69.187,-23.426c-35.415,1.54 -40.478,-31.651 -28.329,-47.396c17.891,-23.187 66.623,-27.243 82.807,-9.261c29.418,32.687 -6.537,52.844 3.269,60.471c9.806,7.627 11.44,19.612 11.44,19.612Z" style="fill:#eae8e3;stroke:#000;stroke-width:1.8px;"/><path d="M293.825,149.655c0,0 24.733,-26.367 60.144,-24.733c35.411,1.634 59.563,-21.163 39.551,-44.999c-16.73,-19.927 -58.379,-13.968 -77.991,0.196c-19.612,14.164 -20.07,27.588 -13.532,45.021c4.362,11.632 -8.172,24.515 -8.172,24.515Z" style="fill:#eae8e3;stroke:#000;stroke-width:1.8px;"/><path d="M288.68,226.222c0,0 55.307,-14.753 89.593,-5.752c34.287,9.001 67.464,-37.174 39.726,-59.682c-21.871,-17.748 -54.314,-17.257 -74.073,-3.299c-38.483,27.184 -7,29.343 -14.915,45.102c-5.576,11.101 -40.332,23.631 -40.332,23.631Z" style="fill:#eae8e3;stroke:#000;stroke-width:1.8px;"/><path d="M214.832,140.394c0,0 -6.005,-34.032 29.418,-32.687c43.038,1.634 38.829,-48.291 17.433,-57.202c-25.149,-10.473 -53.361,-14.985 -71.911,0.545c-46.851,39.224 19.067,55.023 18.523,61.015c-1.125,12.372 6.537,28.329 6.537,28.329Z" style="fill:#eae8e3;stroke:#000;stroke-width:1.8px;"/><g transform="matrix(0.99124,0.13207,-0.13207,0.99124,-16.828281,21.753447)"><g transform="matrix(22.631409,0,0,22.631409,277.140983,27.531938)"></g><text x="216.838px" y="27.532px" style="font-family:'Caprasimo-Regular', 'Caprasimo', serif;font-size:22.631px;">Hello</text></g><g transform="matrix(0.969774,-0.244003,0.244003,0.969774,-48.80055,-57.762072)"><g transform="matrix(16.655359,0,0,16.655359,115.073722,273.715611)"></g><text x="28.91px" y="273.716px" style="font-family:'Caprasimo-Regular', 'Caprasimo', serif;font-size:16.655px;">Gut<tspan x="61.025px " y="273.716px ">e</tspan>n T<tspan x="96.003px " y="273.716px ">a</tspan>g</text></g><g transform="matrix(0.999572,-0.029255,0.029255,0.999572,1.728151,-12.907047)"><g transform="matrix(29.886179,0,0,29.886179,119.516895,124.010257)"></g><text x="73.791px" y="124.01px" style="font-family:'WDXLLubrifontSC-Regular', 'WDXL Lubrifont SC';font-size:29.886px;">你好</text></g><g transform="matrix(0.993008,0.118051,-0.118051,0.993008,-7.813399,15.747617)"><g transform="matrix(29.886179,0,0,29.886179,426.225548,131.441223)"></g><text x="377.182px" y="131.441px" style="font-family:'Jua-Regular', 'Jua';font-size:29.886px;">안녕</text></g><g transform="matrix(0.972807,-0.231617,0.231617,0.972807,-16.307733,-51.313283)"><g transform="matrix(29.886179,0,0,29.886179,287.333982,233.316696)"></g><g transform="matrix(29.886179,0,0,29.886179,311.063608,233.316696)"></g><g transform="matrix(29.886179,0,0,29.886179,327.799869,233.316696)"></g><g transform="matrix(29.886179,0,0,29.886179,337.243901,233.316696)"></g><g transform="matrix(29.886179,0,0,29.886179,344.536129,233.316696)"></g><text x="287.334px" y="233.317px" style="font-family:'Lalezar-Regular', 'Lalezar';font-size:29.886px;">ﻣرﺤﺒﺎ</text></g><defs><linearGradient id="_Linear1" x1="0" y1="0" x2="1" y2="0" gradientUnits="userSpaceOnUse" gradientTransform="matrix(-13.960981,3.806107,-3.806107,-13.960981,369.536987,397.299726)"><stop offset="0" style="stop-color:#646155;stop-opacity:1"/><stop offset="1" style="stop-color:#615a5b;stop-opacity:1"/></linearGradient><linearGradient id="_Linear2" x1="0" y1="0" x2="1" y2="0" gradientUnits="userSpaceOnUse" gradientTransform="matrix(-3.083981,-1.84364,1.84364,-3.083981,312.962135,420.268761)"><stop offset="0" style="stop-color:#dad5de;stop-opacity:1"/><stop offset="1" style="stop-color:#f6f6f5;stop-opacity:1"/></linearGradient></defs></svg>